<svg id="Layer_1" data-name="Layer 1" xmlns="http://www.w3.org/2000/svg" width="413.8382" height="115.2809" viewBox="0 0 413.8382 115.2809"><title>tmalogo3</title><path d="M17.0186,115.2808c0-1.1.0171-2.3066-.0132-3.5121a2.7562,2.7562,0,0,0-.2778-.7937,5.9305,5.9305,0,0,0-.7434.5694,2.2808,2.2808,0,0,0-.3064.5854l-.201-.0465c.0491-.408.0851-.818.1508-1.2233.0686-.4237.1911-.84.2459-1.2644.1742-1.351.3255-2.7049.49-4.0571a10.56,10.56,0,0,1,.3733-2.5848,6.13,6.13,0,0,0,.2576-2.4051c0-.4434-.2953-.8849-.3047-1.33a28.7673,28.7673,0,0,1,.0631-4.9058c.16-1.05.2264-2.1232.4558-3.1667a1.1674,1.1674,0,0,0-.5245-1.1838c-.5958-.5127-1.1823-1.0408-1.7292-1.6047q-1.57-1.6191-3.0882-3.2886A44.3916,44.3916,0,0,1,7.85,79.731a36.159,36.159,0,0,1-2.2728-4.0656C4.8163,74.1172,4.1267,72.53,3.4887,70.926c-.6506-1.6353-1.201-3.31-1.7935-4.9689a1.8545,1.8545,0,0,1-.0441-.2112c-.2187-.9682-.4645-1.9312-.65-2.9058C.8,61.78.6771,60.706.48,59.6454c-.6855-3.6935-.4454-7.4223-.4166-11.14a24.1828,24.1828,0,0,1,.3649-2.8683c.1569-1.2136.27-2.4343.473-3.64.145-.8627.4069-1.7057.6152-2.5578.0383-.157.0619-.3177.1058-.4728.2023-.7151.4041-1.43.6163-2.1426.1563-.5243.3117-1.05.4969-1.5643.42-1.1662.8249-2.34,1.299-3.4839a30.3372,30.3372,0,0,1,1.3831-2.9276c.8432-1.5446,1.7069-3.0818,2.6461-4.569.8741-1.3841,1.8147-2.7319,2.8078-4.0332A29.1662,29.1662,0,0,1,13.2975,17.51c1.0253-1.0414,2.0809-2.06,3.1911-3.009,1.38-1.18,2.7955-2.327,4.2621-3.3971a34.3424,34.3424,0,0,1,3.1661-1.93c1.14-.6561,2.2855-1.3087,3.4624-1.8948.7619-.38,1.5857-.6342,2.38-.95.5957-.2369,1.1846-.4911,1.7838-.7186.1967-.0747.4223-.0709.6235-.1371a7.572,7.572,0,0,0,.701-.2958c.064-.0284.1165-.0944.1814-.1073.64-.1264,1.284-.2323,1.9216-.3691.9943-.2134,1.9842-.4477,2.9766-.67a6.5552,6.5552,0,0,1,.6894-.13,43.3715,43.3715,0,0,1,9.95-.356c1.328.1552,2.645.4083,3.9639.6351.9016.1549,1.8082.3,2.6933.5257a13.8387,13.8387,0,0,1,2.4956.6918c.8528.3938,1.809.5575,2.6839.9111,1.2018.4857,2.3894,1.0165,3.5469,1.6,1.3194.6649,2.6152,1.3809,3.892,2.1248A29.1216,29.1216,0,0,1,72.77,13.6356c1.2325,1.1175,2.5167,2.183,3.69,3.3593.96.9622,1.8059,2.0407,2.6723,3.0925.6834.83,1.2966,1.7183,1.9958,2.5337a1.3024,1.3024,0,0,0,.8574.3367,6.0051,6.0051,0,0,1,2.8591.8021,4.4892,4.4892,0,0,1,2.0345,2.7837,9.0094,9.0094,0,0,1-.3724,4.8739,3.5685,3.5685,0,0,0,.4217,2.1719c.3533,1.0848.7281,2.1628,1.0681,3.2517.3618,1.1584.6936,2.3262,1.0388,3.49.0307.1036.0736.2045.0943.31.1165.592.2649,1.1806.3343,1.7783.24,2.068.5587,4.1347.6474,6.21.11,2.57.09,5.1512-.009,7.7223a40.0493,40.0493,0,0,1-.5876,4.6531c-.171,1.0863-.4387,2.1575-.67,3.234-.1574.7324-.2951,1.4711-.4983,2.191-.2566.9084-.5524,1.807-.8656,2.6979-.3081.8767-.6492,1.7424-.9943,2.6055-.2694.6736-.5426,1.3478-.8577,2.0006-.4722.9783-.9589,1.9512-1.4839,2.9019-.4768.8635-.9837,1.7137-1.5294,2.5351-.9789,1.4734-1.9134,2.9879-3.0194,4.3622-1.4132,1.756-2.9416,3.4244-4.493,5.0617a23.7131,23.7131,0,0,1-2.4857,2.0977c-.9876.7892-1.9713,1.5881-3.0064,2.3117-1.0009.7-2.0462,1.3417-3.1062,1.9494-1.2028.69-2.4169,1.3716-3.6757,1.9485-1.18.5408-2.4461.8908-3.635,1.4143a23.5693,23.5693,0,0,1-4.4409,1.31c-1.4614.325-2.951.55-4.4354.7793a40.6975,40.6975,0,0,1-6.68.3131c-1.1412-.0117-2.28-.2332-3.42-.36a1.2056,1.2056,0,0,0-.1608-.0189c-1.9823.0514-3.8443-.6211-5.7583-.9744a12.1293,12.1293,0,0,1-1.7483-.6083.91.91,0,0,0-.3149-.0663,5.3861,5.3861,0,0,1-2.1368-.7215c-.8393-.3346-1.6833-.6575-2.5222-.9932a1.8205,1.8205,0,0,1-.4083-.235c-.5386-.404-1.074-.24-1.2169.4129-.1719.7861-.282,1.5855-.4457,2.3735-.1417.6824-.3458,1.352-.4783,2.0358a23.2489,23.2489,0,0,0-.7073,3.7422,7.8646,7.8646,0,0,1-.6044,1.9371c-.1435.46-.2251.941-.396,1.3891-.374.98-.8014,1.94-1.1778,2.92a11.678,11.678,0,0,0-.3413,1.2391c-.1024.391-.2677.4207-.5508.1333a1.1787,1.1787,0,0,0-1.7848.0786C18.6656,113.7939,17.82,114.5382,17.0186,115.2808ZM76.337,31.9972c-.0839.379-.1515.5862-.1733.798a10.9318,10.9318,0,0,1-1.603,4.3578c-.4749.821-.8931,1.6747-1.3473,2.5079-.5639,1.0344-1.0812,2.1005-1.7229,3.0849-.8906,1.3663-1.8761,2.6709-2.8274,3.9974a4.929,4.929,0,0,1-.4573.467c.0357-.5133.0694-.8682.0835-1.2238.0849-2.1422.1947-4.284.24-6.4271.0543-2.5913.1134-5.1853.0466-7.7749a3.9623,3.9623,0,0,0-1.103-3.1669c-.508-.437-1.3835-.9013-1.97-.6652-.3962.1595-.8006.3016-1.1866.4828-1.0557.4957-2.09,1.0383-3.1594,1.5028-.6872.2987-1.4268.4743-2.1309.7372a5.012,5.012,0,0,0-2.4294,1.4766,1.8165,1.8165,0,0,0,.0742,2.1882,1.3757,1.3757,0,0,0,1.713.3169c.335-.1432.6915-.236,1.0437-.3534.2423,1.1281-12.1888,19.0184-13.1152,19.4817a4.726,4.726,0,0,1,.0843-.6027c.1071-.3878.2531-.765.3563-1.1537.2937-1.107.5657-2.22.8626-3.3259.1732-.6455.3938-1.2783.5648-1.9243.3445-1.3022.6753-2.6081,1.0006-3.9152q.327-1.3134.6219-2.6348a13.0911,13.0911,0,0,1,.5832-2.56,1.4559,1.4559,0,0,0-1.465-2.0224c-1.3648.1919-2.7316.3712-4.0936.5818a10.8894,10.8894,0,0,0-1.3913.3437,2.0037,2.0037,0,0,0-.6056.2941c-.6023.4394-1.1606.9455-1.7892,1.3412-.8115.5107-1.6854.9211-2.5126,1.4083-1.0637.6265-2.1061,1.2892-3.1609,1.931-1.204.7327-2.45,1.4036-3.6091,2.2015-1.9116,1.3159-3.779,2.6972-5.6435,4.08-1.2451.9233-2.4416,1.9121-3.6806,2.844-1.3535,1.0181-2.748,1.9819-4.0922,3.0118-1.0364.7941-2.04,1.6333-3.0263,2.4893-1.0391.9021-2.0837,1.8053-3.0462,2.7862-1.0283,1.0479-1.9985,2.1585-2.927,3.2965a5.6181,5.6181,0,0,0-1.2748,2.5866c-.15.8729.2482,1.5112,1.1166,1.5575a12.4851,12.4851,0,0,0,2.6891-.1128,2.685,2.685,0,0,0,2.0539-1.3028,16.1894,16.1894,0,0,1,2.78-3.7431c.6668-.7212,1.4257-1.3582,2.1526-2.0227.7249-.6627,1.4425-1.3357,2.1972-1.9632,1.3149-1.0932,2.6542-2.1571,3.99-3.2247a.5943.5943,0,0,1,.2719-.0718c-.3229,1.55-.6354,3.052-.9493,4.5531-.0145.07-.0442.1358-.0642.2044-.0912.3118-.1953.6207-.2664.9372-.0389.1729.0041.364-.0332.5375-.26,1.2121-.5349,2.4212-.7993,3.6323q-.27,1.2384-.5259,2.48c-.2059.99-.4268,1.9772-.6049,2.9721-.1928,1.077-.3268,2.1646-.5176,3.2421-.1895,1.0708-.4322,2.1321-.6237,3.2026-.1134.6338-.1643,1.2786-.258,1.9163q-.4785,3.2571-.9684,6.5125-.1549,1.0335-.3255,2.0648c-.0667.4017-.1764.7979-.2168,1.2016a1.5829,1.5829,0,0,0,.0608.8633,4.1013,4.1013,0,0,1,.4268,2.7559c-.12.754-.1749,1.5184-.2568,2.2786a1.8911,1.8911,0,0,1-.0451.4808,10.2135,10.2135,0,0,0-.3925,3.4151c-.0216.4636.091.8061.7153.6012a5.0254,5.0254,0,0,1,.0366.6871c-.0993,1.1218-.26,2.24-.309,3.3641-.0542,1.2412-.0125,2.4867-.0076,3.73a2.4916,2.4916,0,0,0,.0506.4268c.0869.4856.1934.9683.2635,1.4563a5.304,5.304,0,0,0,.0409.8046c.0658.2088.2566.4867.4337.5213.1841.0361.4421-.1539.6214-.3013a.8526.8526,0,0,0,.1941-.4373c.2417-.95.4731-1.9028.7088-2.8544.2479-1.0009.5031-2,.7435-3.0028.1968-.8209.3762-1.646.5641-2.4691.1833-.8037.3947-1.602.5454-2.4117.273-1.4667.51-2.94.7619-4.41.1289-.7541.2485-1.51.3865-2.2622.0987-.5383.2211-1.072.3324-1.6078.0255-.1227.057-.2449.0716-.369.0855-.7288.1552-1.46.252-2.1869.1759-1.32.3464-2.6424.5574-3.9575.2468-1.5383.5337-3.07.8053-4.6045.0438-.2478.1067-.4924.1468-.7407.1857-1.1509.3577-2.3041.556-3.4527a5.1655,5.1655,0,0,1,.263-.731,2.55,2.55,0,0,0,.1151-.4553c.1446-1.0212.2818-2.0435.4239-3.0651.01-.0705.0449-.1373.06-.2076.3549-1.6519.7165-3.3024,1.06-4.9568.1887-.91.3374-1.8281.52-2.74q.1851-.9262.4153-1.8435c.18-.7152.41-1.4184.5679-2.138.19-.8689.2682-1.7656.4993-2.6221.433-1.6039.95-3.1848,1.4146-4.78a5.8906,5.8906,0,0,1,1.4194-2.367A11.7108,11.7108,0,0,1,37.2773,45.64c.8882-.4836,1.7251-1.0611,2.5892-1.59.5581-.3413,1.1241-.6695,1.7953-1.0681-.0282.2919.011.496-.07.6236-.4247.6681-.1455,1.4747-.524,2.1961A9.0022,9.0022,0,0,0,40.6,48.054c-.1664.7724-.3632,1.5386-.5626,2.3033-.2028.7776-.44,1.5466-.6348,2.3259-.2221.8865-.3378,1.8078-.641,2.6638-.3356.9476-.448,1.9452-.8288,2.8893A19.2307,19.2307,0,0,0,37.26,61.16c-.168.7352-.4076,1.4571-.5306,2.199-.1469.8862-.209,1.7868-.2942,2.6824a.9447.9447,0,0,0,.0672.4632,1.4533,1.4533,0,0,0,1.7.8089c1.2326-.1564,2.461-.3711,3.6984-.4582A4.6656,4.6656,0,0,0,45.109,65.02c.8593-.9759,1.6311-2.0322,2.4-3.0835,1.16-1.5871,2.282-3.2026,3.4255-4.8021q1.5819-2.2128,3.1755-4.4174c.5437-.7544,1.0865-1.51,1.6417-2.2558.4278-.5749.899-1.1187,1.308-1.7063,1.0628-1.5268,2.096-3.0742,3.1557-4.6033a9.9479,9.9479,0,0,1,.7759-.8669,4.9145,4.9145,0,0,1,.0424.5282c-.1588,2.6777-.314,5.3557-.4867,8.0326-.07,1.09-.1905,2.1774-.2668,3.2674-.0248.3545.06.7185.0211,1.07a1.626,1.626,0,0,0,1.6,1.9271c1.3493-.012,2.7036-.0676,4.0443-.2113a3.1608,3.1608,0,0,0,2.1529-1.1432c.6211-.7615,1.2278-1.5348,1.8467-2.2981.4059-.5006.8337-.9837,1.23-1.4919a8.5953,8.5953,0,0,0,.5012-.8051l.1618.0613c-.0432.2354-.0744.4739-.1323.7056-.0959.3835-.2172.7606-.3135,1.1439q-.675,2.6882-1.3408,5.3785a20.6293,20.6293,0,0,0-.9479,4.3533,2.4264,2.4264,0,0,1-.0722.4257q-.3191,1.5132-.6409,3.0256c-.4226,2-.78,4.0169-1.2913,5.9939a25.1127,25.1127,0,0,1-1.2788,3.3338A2.2438,2.2438,0,0,0,67.8144,79.6a18.782,18.782,0,0,0,4.2645-.4838,2.8673,2.8673,0,0,0,2.0787-1.3952,4.5463,4.5463,0,0,0,.5863-3.058,14.2218,14.2218,0,0,1,.2854-4.6027,32.8444,32.8444,0,0,1,.9239-5.1049,23.6885,23.6885,0,0,0,.4509-2.3713c.2464-1.1614.5144-2.3185.7937-3.4725.0875-.3612.2615-.701.3588-1.0606.0918-.3394.11-.6989.2047-1.0372.1689-.6034.3931-1.1915.5553-1.7964.4211-1.5712.807-3.1518,1.234-4.7212.3287-1.2079.7134-2.4,1.0446-3.6078.1975-.72.315-1.4622.5123-2.1824.3262-1.1906.7458-2.3583,1.022-3.5595.5389-2.3434,1.0067-4.7031,1.5022-7.0564.212-1.0068.4441-2.01.6223-3.0231.1866-1.0611.3694-2.1271.4642-3.1989C84.86,26.27,83.5653,26,82.3745,26.3341c-.7932.2229-1.5715.4981-2.3637.725-1.1571.3315-2.343.5779-3.4742.98-.8532.3031-1.81.3543-2.49,1.1545a2.1036,2.1036,0,0,0-.3267,2.6,1.3064,1.3064,0,0,0,1.98.2993C75.8268,31.993,76.0654,32.033,76.337,31.9972ZM19.7508,39.1464a4.03,4.03,0,0,1,.0052-.6518c.1048-.5186.2392-1.0312.3486-1.549.0668-.3164.0924-.6418.1646-.9568.4521-1.9742.9153-3.9458,1.3679-5.92.151-.6586.2529-1.3295.4274-1.9813.3931-1.4681.8271-2.9252,1.2263-4.3917q.4519-1.66.8541-3.334a5.3906,5.3906,0,0,1,.2934-1.5048,2.504,2.504,0,0,0,.2721-1.1529,7.0946,7.0946,0,0,1,.2566-1.0333,2.3942,2.3942,0,0,0-.0318-1.9323A2.0669,2.0669,0,0,0,22.22,14.339a5.8911,5.8911,0,0,1-3.1334.9706,2.0889,2.0889,0,0,0-1.9725,1.8165,25.047,25.047,0,0,1-.7538,4.7142c-.2463.7169-.3061,1.4958-.4851,2.2382-.3855,1.5993-.8182,3.1876-1.1863,4.7907-.5084,2.2145-.9747,4.4386-1.46,6.6583-.0229.1048-.0574.2071-.0885.31a10.426,10.426,0,0,0-.3168,1.0639c-.1931,1.0244-.3472,2.056-.5333,3.0818a13.3815,13.3815,0,0,0-.1732,5.1481,2.073,2.073,0,0,0,2.1028,1.77c1.1656-.0462,2.3329-.1344,3.49-.2772a6,6,0,0,0,3.602-1.6864c1.19-1.1841,2.3658-2.3822,3.5635-3.5582,1.4045-1.379,2.8247-2.7422,4.2414-4.1088.206-.1987.4306-.3783.6465-.5668l.15.0941c-.2083.8652-.4073,1.7328-.6269,2.5952-.42,1.6473-.8611,3.2892-1.2655,4.94a2.3531,2.3531,0,0,0,.0716.7567,2.4534,2.4534,0,0,0,.8438-.1633c.6845-.4261,1.3161-.9361,1.99-1.38,1.1041-.7274,2.2524-1.3907,3.3273-2.1579a3.8168,3.8168,0,0,0,1.2186-1.3358,27.9512,27.9512,0,0,0,1.1716-3.0919c.3247-.9386.59-1.8977.91-2.838.4541-1.3341.9517-2.6535,1.3986-3.99C39.4772,28.5663,40,26.9975,40.45,25.4088a4.5064,4.5064,0,0,0-.0109-1.4933.4045.4045,0,0,0-.2914-.2629,14.2616,14.2616,0,0,0-2.4634-.0088,20.08,20.08,0,0,0-2.65.69,3.0361,3.0361,0,0,0-1.0946.41,2.9956,2.9956,0,0,0-1.1713,2.0787,1.6372,1.6372,0,0,1-.5208.9706c-.8787.7747-1.8277,1.4691-2.7234,2.2254-1.1348.9581-2.2672,1.9215-3.3568,2.93-.9685.8962-1.8724,1.8619-2.8157,2.7859-.2288.2241-.5187.3855-.7489.6084C21.6816,37.2341,20.7735,38.1385,19.7508,39.1464Z" transform="translate(0.0004 0.0001)" style="fill:#077cbf"/><path d="M76.337,31.9972c-.2716.0358-.51-.0042-.6395.0963a1.3064,1.3064,0,0,1-1.98-.2993,2.1036,2.1036,0,0,1,.3267-2.6c.6809-.8,1.6372-.8514,2.49-1.1545,1.1312-.4019,2.3171-.6483,3.4742-.98.7922-.2269,1.5705-.5021,2.3637-.725,1.1908-.3346,2.4851-.0637,2.3437,1.5337-.0948,1.0718-.2776,2.1378-.4642,3.1989-.1782,1.0128-.41,2.0163-.6223,3.0231-.4955,2.3533-.9633,4.713-1.5022,7.0564-.2762,1.2012-.6958,2.3689-1.022,3.56-.1973.72-.3148,1.4623-.5123,2.1824-.3312,1.2073-.7159,2.4-1.0446,3.6078-.427,1.5694-.8129,3.15-1.234,4.7212-.1622.6049-.3864,1.193-.5553,1.7964-.0948.3383-.1129.6978-.2047,1.0372-.0973.36-.2713.6994-.3588,1.0606-.2793,1.154-.5473,2.3111-.7937,3.4725a23.6885,23.6885,0,0,1-.4509,2.3713,32.8562,32.8562,0,0,0-.9239,5.1049,14.2273,14.2273,0,0,0-.2854,4.6027,4.5451,4.5451,0,0,1-.5863,3.058,2.867,2.867,0,0,1-2.0787,1.3952A18.7814,18.7814,0,0,1,67.812,79.6a2.2438,2.2438,0,0,1-1.9939-3.0181,25.0989,25.0989,0,0,0,1.2788-3.3338c.5116-1.977.8687-3.9939,1.2913-5.9939q.32-1.5129.6409-3.0256a2.4171,2.4171,0,0,0,.0722-.4257,20.6293,20.6293,0,0,1,.9479-4.3533q.6629-2.691,1.3408-5.3785c.0963-.3833.2177-.76.3136-1.1439.0579-.2317.089-.47.1322-.7056l-.1618-.0613a8.5745,8.5745,0,0,1-.5012.8051c-.3959.5082-.8237.9913-1.23,1.4919-.6189.7633-1.2256,1.5366-1.8467,2.2981a3.1606,3.1606,0,0,1-2.1528,1.1432c-1.3407.1437-2.6951.1993-4.0443.2113a1.6256,1.6256,0,0,1-1.6-1.9271c.039-.3514-.0459-.7154-.0212-1.07.0763-1.09.1964-2.1771.2668-3.2674.1727-2.6769.3279-5.3549.4867-8.0326a4.889,4.889,0,0,0-.0424-.5282,9.9625,9.9625,0,0,0-.7759.8669c-1.06,1.5291-2.0929,3.0765-3.1557,4.6033-.409.5876-.88,1.1314-1.308,1.7063-.5552.746-1.098,1.5014-1.6416,2.2558q-1.5908,2.2068-3.1755,4.4174c-1.1435,1.6-2.265,3.215-3.4255,4.8021-.7687,1.0513-1.5405,2.1076-2.4,3.0835a4.6658,4.6658,0,0,1-3.2083,1.8358c-1.2375.0871-2.4658.3019-3.6984.4582a1.4532,1.4532,0,0,1-1.7-.8089.9424.9424,0,0,1-.0672-.4632c.0852-.8956.1473-1.7962.2942-2.6824.123-.7418.3626-1.4637.5306-2.1989a19.228,19.228,0,0,1,.6732-2.9238c.3808-.9441.4932-1.9418.8288-2.8894.3032-.8561.4189-1.7773.641-2.6637.1952-.7794.432-1.5484.6348-2.3259.1994-.7648.3962-1.531.5626-2.3033a8.9959,8.9959,0,0,1,.4675-2.2526c.3785-.7214.0992-1.528.524-2.1961.0811-.1276.0419-.3317.07-.6236-.6712.3986-1.2372.7268-1.7953,1.0681-.8641.5285-1.701,1.106-2.5893,1.59a11.7062,11.7062,0,0,0-3.0882,2.1862,5.89,5.89,0,0,0-1.4194,2.3669c-.4644,1.5957-.9816,3.1766-1.4146,4.78-.2311.8565-.3091,1.7532-.4993,2.6221-.1576.72-.3884,1.4228-.5679,2.138q-.23.9164-.4153,1.8435c-.1822.9114-.331,1.83-.52,2.74-.3431,1.6543-.7046,3.3049-1.06,4.9567-.015.07-.05.137-.06.2077-.1421,1.0216-.2793,2.0439-.4239,3.065a2.559,2.559,0,0,1-.1151.4553,5.1407,5.1407,0,0,0-.263.731c-.1983,1.1486-.37,2.3018-.556,3.4527-.04.2483-.103.4929-.1468.7407-.2716,1.5343-.5585,3.0662-.8053,4.6045-.211,1.3151-.3815,2.637-.5574,3.9575-.0968.7273-.1665,1.4581-.252,2.1869-.0146.1241-.0461.2463-.0716.369-.1113.5358-.2337,1.07-.3324,1.6078-.138.7524-.2576,1.508-.3865,2.2622-.2515,1.4706-.4889,2.9437-.7619,4.41-.1507.81-.3621,1.608-.5454,2.4117-.1879.8231-.3673,1.6482-.5641,2.4691-.24,1.0027-.4956,2.0019-.7435,3.0028-.2357.9516-.4671,1.9043-.7088,2.8544a.8534.8534,0,0,1-.1941.4373c-.1793.1475-.4373.3374-.6214.3014-.1771-.0346-.3679-.3126-.4337-.5213a5.2924,5.2924,0,0,1-.0409-.8047c-.07-.488-.1766-.9707-.2635-1.4563a2.4817,2.4817,0,0,1-.0506-.4268c-.0049-1.2437-.0466-2.4892.0076-3.73.0491-1.1236.21-2.2422.309-3.364a5.0557,5.0557,0,0,0-.0366-.6871c-.6243.2048-.7369-.1377-.7153-.6012a10.2106,10.2106,0,0,1,.3925-3.4151,1.8968,1.8968,0,0,0,.0451-.4809c.0819-.76.1369-1.5245.2568-2.2786a4.1014,4.1014,0,0,0-.4268-2.7559,1.5819,1.5819,0,0,1-.0608-.8633c.04-.4037.15-.8.2167-1.2016q.1715-1.0311.3255-2.0648.4876-3.2557.9684-6.5125c.0937-.6377.1446-1.2825.2581-1.9163.1914-1.07.4341-2.1318.6237-3.2026.1908-1.0775.3248-2.165.5176-3.2421.1781-.9949.399-1.9822.6049-2.9721q.258-1.241.5259-2.48c.2644-1.2113.5389-2.42.7993-3.6324.0373-.1735-.0057-.3646.0332-.5375.0711-.3164.1752-.6254.2664-.9372.02-.0685.05-.1348.0642-.2043.3139-1.5012.6264-3.0026.9493-4.5532a.5956.5956,0,0,0-.2719.0718c-1.3357,1.0677-2.675,2.1316-3.99,3.2247-.7547.6275-1.4723,1.3-2.1972,1.9632-.7269.6645-1.4858,1.3015-2.1526,2.0227a16.1894,16.1894,0,0,0-2.78,3.7431,2.6856,2.6856,0,0,1-2.0539,1.3029A12.4979,12.4979,0,0,1,9.1829,66.4c-.8684-.0464-1.267-.6847-1.1166-1.5575a5.6175,5.6175,0,0,1,1.2748-2.5867c.9285-1.138,1.8987-2.2485,2.927-3.2965.9625-.9809,2.0071-1.8841,3.0462-2.7862.9862-.8559,1.99-1.6953,3.0263-2.4892,1.3442-1.03,2.7387-1.9938,4.0922-3.0119,1.239-.9318,2.4355-1.9206,3.6806-2.8439,1.8645-1.3828,3.7319-2.7641,5.6435-4.08,1.159-.7979,2.4051-1.4688,3.6091-2.2015,1.0548-.6418,2.0972-1.3045,3.1609-1.931.8272-.4872,1.7011-.8976,2.5126-1.4083.6286-.3957,1.1869-.9018,1.7892-1.3412a1.999,1.999,0,0,1,.6056-.2941,10.8894,10.8894,0,0,1,1.3913-.3437c1.362-.2106,2.7288-.39,4.0936-.5818a1.4558,1.4558,0,0,1,1.465,2.0224,13.0806,13.0806,0,0,0-.5832,2.56q-.2964,1.3206-.6219,2.6348c-.3253,1.3071-.6561,2.613-1.0006,3.9152-.171.646-.3916,1.2788-.5648,1.9242-.2969,1.1062-.5689,2.2189-.8626,3.3259-.1032.3887-.2492.7659-.3563,1.1537a4.7082,4.7082,0,0,0-.0843.6027c.9264-.4633,13.3575-18.3536,13.1152-19.4817-.3522.1174-.7087.21-1.0437.3534a1.3755,1.3755,0,0,1-1.713-.3169,1.8162,1.8162,0,0,1-.0742-2.1882,5.0123,5.0123,0,0,1,2.4294-1.4766c.7041-.2629,1.4437-.4385,2.1309-.7372,1.0689-.4645,2.1037-1.0071,3.1594-1.5028.386-.1812.79-.3233,1.1866-.4828.5865-.2361,1.462.2282,1.97.6652a3.9623,3.9623,0,0,1,1.103,3.1669c.0668,2.59.0077,5.1836-.0466,7.7749-.0449,2.1431-.1547,4.2849-.24,6.4271-.0141.3556-.0478.71-.0835,1.2238a4.9412,4.9412,0,0,0,.4573-.467c.9513-1.3265,1.9368-2.6311,2.8274-3.9974.6417-.9844,1.159-2.05,1.7229-3.0849.4542-.8332.8724-1.6869,1.3473-2.5079a10.9333,10.9333,0,0,0,1.603-4.3578C76.1855,32.5834,76.2531,32.3762,76.337,31.9972Z" transform="translate(0.0004 0.0001)" style="fill:#fff"/><path d="M19.7508,39.1464c1.0227-1.0079,1.9308-1.9123,2.8514-2.8038.23-.2229.52-.3843.7489-.6084.9433-.924,1.8472-1.89,2.8157-2.7859,1.09-1.0085,2.222-1.9719,3.3568-2.93.8957-.7563,1.8447-1.4507,2.7234-2.2254a1.6372,1.6372,0,0,0,.5208-.9706,2.996,2.996,0,0,1,1.1713-2.0787,3.0361,3.0361,0,0,1,1.0946-.41,20.0649,20.0649,0,0,1,2.65-.69,14.2616,14.2616,0,0,1,2.4634.0088.4043.4043,0,0,1,.2914.2629,4.5064,4.5064,0,0,1,.0109,1.4933c-.45,1.5887-.9727,3.1575-1.4966,4.7242-.4469,1.3364-.9445,2.6558-1.3986,3.99-.32.94-.5856,1.8994-.91,2.838a27.9588,27.9588,0,0,1-1.1716,3.0919,3.8185,3.8185,0,0,1-1.2186,1.3358c-1.0749.7672-2.2232,1.43-3.3273,2.1579-.6741.4441-1.3057.9541-1.99,1.38a2.4558,2.4558,0,0,1-.8438.1633,2.3536,2.3536,0,0,1-.0716-.7567c.4044-1.6509.846-3.2928,1.2655-4.94.22-.8624.4186-1.73.6269-2.5952l-.15-.0941c-.2159.1885-.4405.3681-.6465.5668-1.4167,1.3666-2.8369,2.73-4.2414,4.1088-1.1977,1.176-2.3736,2.3741-3.5635,3.5582a6,6,0,0,1-3.602,1.6864c-1.1576.1428-2.3249.231-3.4905.2772a2.073,2.073,0,0,1-2.1028-1.77A13.3814,13.3814,0,0,1,12.29,39.983c.1861-1.0258.34-2.0574.5333-3.0818a10.426,10.426,0,0,1,.3168-1.0639c.0311-.1028.0656-.2051.0885-.31.4857-2.22.952-4.4438,1.46-6.6583.3681-1.6031.8008-3.1914,1.1863-4.7907.179-.7424.2388-1.5213.4851-2.2382a25.047,25.047,0,0,0,.7538-4.7142,2.0889,2.0889,0,0,1,1.9725-1.8165,5.892,5.892,0,0,0,3.1334-.9706,2.0666,2.0666,0,0,1,2.7148.3995,2.3942,2.3942,0,0,1,.0318,1.9323,7.0882,7.0882,0,0,0-.2566,1.0333,2.5043,2.5043,0,0,1-.2721,1.1529,5.39,5.39,0,0,0-.2934,1.5048q-.3993,1.6737-.8541,3.334c-.3992,1.4665-.8332,2.9236-1.2263,4.3917-.1745.6518-.2764,1.3227-.4274,1.9813-.4526,1.9741-.9158,3.9457-1.3679,5.92-.0722.315-.0978.64-.1646.9568-.1094.5178-.2438,1.03-.3486,1.549A4.0209,4.0209,0,0,0,19.7508,39.1464Z" transform="translate(0.0004 0.0001)" style="fill:#fff"/><path d="M90.6142,26.8871a5.1344,5.1344,0,0,1,.059.7357,15.332,15.332,0,0,1-.5794,3.0546c-.1025.3556-.4585,1.4076-.4585,1.4076s2.4287,6.7851,2.9482,9.1257c.4182,1.8842.9576,7.66.9576,7.66s.1448,6.4521-.1265,8.58c-.4437,3.48-3.3208,13.6355-3.3208,13.6355s3.1388-6.8508,3.8627-9.25a65.4006,65.4006,0,0,0,1.6912-10.2845,69.3782,69.3782,0,0,0-.1246-9.556,54.8129,54.8129,0,0,0-1.216-7.8718c-.3963-1.2912-1.4315-3.3134-1.9151-4.5963-.1393-.37-.7661-1.9152-.7661-1.9152s.525-.0894,1.1419-.2046A6.2864,6.2864,0,0,1,90.6142,26.8871Z" transform="translate(0.0004 0.0001)" style="fill:#f89520"/><path d="M80.7083,11.7208A64.2357,64.2357,0,0,0,74.39,6.7379a57.7754,57.7754,0,0,0-6.5115-3.6388A50.6458,50.6458,0,0,0,57.3448.2264C54.9274-.1215,47.5776.0349,47.5776.0349s6.49,1.1774,8.6181,1.7236c2.6255.6737,7.9453,1.9893,10.3418,3.2557a54.03,54.03,0,0,1,10.3418,7.8521c1.6257,1.705,6.1285,6.8945,6.1285,6.8945s1.9652.4894,2.6812.7661a6.9512,6.9512,0,0,1,1.15.6127l-.001-.0382a6.31,6.31,0,0,1,.3287-2.0109c-.6732-.7375-1.9389-2.1266-2.45-2.705C83.7,15.2329,81.8054,12.7984,80.7083,11.7208Z" transform="translate(0.0004 0.0001)" style="fill:#f89520"/><path d="M93.158,14.7817a6.321,6.321,0,0,0-5.9913,4.309c.2643.29.4374.4788.4374.4788a7.3962,7.3962,0,0,1,.1915-1.5321,6.7353,6.7353,0,0,1,1.7236-1.9151,7.4746,7.4746,0,0,1,3.0643-1.1491,6.3091,6.3091,0,0,1,2.2982.1915A11.5946,11.5946,0,0,1,97.18,16.3138a16.8274,16.8274,0,0,1,1.7237,2.2982,15.8273,15.8273,0,0,1,.1915,3.0642A9.7882,9.7882,0,0,1,97.18,25.698a8.6556,8.6556,0,0,1-2.6812,1.3406c-.3573.1042-1.0932.2508-1.7308.37.1292.0078.2591.0131.39.0131a6.32,6.32,0,1,0,.0048-12.64H93.158Z" transform="translate(0.0004 0.0001)" style="fill:#f89520"/><path d="M94.4986,27.0386A8.6578,8.6578,0,0,0,97.18,25.698a9.7882,9.7882,0,0,0,1.9152-4.0218,15.8273,15.8273,0,0,0-.1915-3.0642A16.8274,16.8274,0,0,0,97.18,16.3138a11.5919,11.5919,0,0,0-2.2981-1.1491,6.3091,6.3091,0,0,0-2.2982-.1915,7.4746,7.4746,0,0,0-3.0643,1.1491,6.7353,6.7353,0,0,0-1.7236,1.9151,7.3962,7.3962,0,0,0-.1915,1.5321s-.1731-.1891-.4374-.4788a6.31,6.31,0,0,0-.3287,2.0109l.001.0382a9.6517,9.6517,0,0,1,2.7963,2.5473,10.5931,10.5931,0,0,1,.9789,3.2,6.2844,6.2844,0,0,0,2.1536.5214C93.4054,27.2894,94.1413,27.1428,94.4986,27.0386Z" transform="translate(0.0004 0.0001)" style="fill:#f89520"/><path d="M121.9105,29.6032a4.371,4.371,0,0,1-.8225,2.6677,5.7064,5.7064,0,0,1-2.1128,1.7521,7.94,7.94,0,0,1-2.7079.7821,10.1483,10.1483,0,0,1,.8092,2.2937,11.7886,11.7886,0,0,1,.234,2.44,18.316,18.316,0,0,0,.1338,2.6476q.1333.816.6017.8827v.3348q-.4014.08-1.05.2069t-1.2571.2345a5.8388,5.8388,0,0,1-.9026.1068,1.9631,1.9631,0,0,1-.7959-.18.6617.6617,0,0,1-.4081-.662,7.952,7.952,0,0,1,.04-.7959,7.7921,7.7921,0,0,0,.04-.7951,18.464,18.464,0,0,0-.2074-3.0226,11.9442,11.9442,0,0,0-.5149-2.0591q-.3081-.8428-.6216-1.5111a10.0092,10.0092,0,0,1-.5216-1.3506,5.4854,5.4854,0,0,1-.2074-1.5917,4.8541,4.8541,0,0,1,.5951-2.4806,4.8027,4.8027,0,0,1,1.5912-1.6581,7.2463,7.2463,0,0,1,2.22-.9292,10.6277,10.6277,0,0,1,2.4939-.2943,4.03,4.03,0,0,1,2.4407.682A2.6653,2.6653,0,0,1,121.9105,29.6032Zm-3.5171-.3883a2.1685,2.1685,0,0,0-.281-1.0027.9013.9013,0,0,0-.8423-.5348,1.6032,1.6032,0,0,0-.9424.3944,3.0658,3.0658,0,0,0-.8761,1.17,4.5545,4.5545,0,0,0-.3612,1.925,5.2685,5.2685,0,0,0,.1874,1.4646,7.724,7.724,0,0,0,.5482,1.3573,4.1756,4.1756,0,0,0,1.4042-1.2168,5.73,5.73,0,0,0,.8689-1.7184,6.1494,6.1494,0,0,0,.2943-1.8388Z" transform="translate(0.0004 0.0001)" style="fill:#042635"/><path d="M138.4791,43.4036l-2.5541.4945a2.0152,2.0152,0,0,1-.401.04,1.27,1.27,0,0,1-1.2306-.8358,9.6177,9.6177,0,0,1-.6018-2.4943q-.0805-.548-.1471-1.11t-.16-1.11a4.5184,4.5184,0,0,0-.495-1.5912,1.5522,1.5522,0,0,0-.9358-.6958,6.5464,6.5464,0,0,0-1.6985-.1737,13.1608,13.1608,0,0,0-.5747,1.2168q-.3617.8428-.7356,1.8324t-.6354,1.8384a4.8215,4.8215,0,0,0-.2605,1.25,1.9752,1.9752,0,0,0,.12.7218.6649.6649,0,0,0,.5884.3746l-.08.3478-2.741.3877a3.8291,3.8291,0,0,1-.5486.04q-1.5109,0-1.511-1.5779a4.3121,4.3121,0,0,1,.16-1.1167q.1608-.5944.3348-1.09a26.1225,26.1225,0,0,1,2.16-4.4131,32.4855,32.4855,0,0,1,2.8279-3.9982l-2.7145.4547-.3208-4.2925a1.6662,1.6662,0,0,0-.2008-.7019.8794.8794,0,0,0-.5754-.4214v-.3347l3.1564-.7085a2.0541,2.0541,0,0,1,.4945-.067.786.786,0,0,1,.896.8291l.16,4.1991,3.731-.6018q-.87,1.1371-1.6918,2.3268a27.8208,27.8208,0,0,0-1.5177,2.4607l2.7947-.7623a5.1148,5.1148,0,0,1,.5552-.1338,3.4521,3.4521,0,0,1,.5681-.04,1.6509,1.6509,0,0,1,1.4043,1.0293,12.5726,12.5726,0,0,1,1.03,3.584q.3341,1.819.5348,2.7747a6.7589,6.7589,0,0,0,.3745,1.3242q.1738.3677.4148.408Z" transform="translate(0.0004 0.0001)" style="fill:#042635"/><path d="M159.7286,44.1122a1.5223,1.5223,0,0,1-.6891.4678,4.3768,4.3768,0,0,1-.9491.2407,6.3178,6.3178,0,0,1-.8357.0664,3.4154,3.4154,0,0,1-1.605-.4143,1.7156,1.7156,0,0,1-.9359-1.3107l-3.5839.6287q-.3348.0537-.6886.1068a4.6083,4.6083,0,0,1-.6891.0537,1.2592,1.2592,0,0,1-.7284-.2141.75.75,0,0,1-.3139-.6687,2.2321,2.2321,0,0,1,.1737-.8959l2.7012-6.2715q-.2812.08-.8827.2539t-1.29.3546q-.689.18-1.2771.3074a4.5913,4.5913,0,0,1-.8424.1272,1.515,1.515,0,0,1-.9563-.2677,2.5926,2.5926,0,0,1-.6354-.8024l-.7887.2942a2.1837,2.1837,0,0,1,.1068.5348q.0268.3081.027.5349a3.51,3.51,0,0,1-1.0032,2.6677,3.7529,3.7529,0,0,1-2.7013.9562,1.6876,1.6876,0,0,1-.4679-.0732,1.2733,1.2733,0,0,1-.4281-.2073,4.642,4.642,0,0,0,.6753-1.1367,3.2215,3.2215,0,0,0,.2876-1.27,2.7219,2.7219,0,0,0-.1338-.7959,1.2469,1.2469,0,0,0-.4414-.662l4.4534-1.6979q-.3746-.95-.6753-1.9524a6.9908,6.9908,0,0,1-.3009-2.0191,4.5933,4.5933,0,0,1,.95-3.0625,5.2056,5.2056,0,0,1,2.4668-1.6044,10.5159,10.5159,0,0,1,3.2029-.4817,3.9252,3.9252,0,0,1,2.4473.7427,2.7123,2.7123,0,0,1,.9762,2.307,3.4645,3.4645,0,0,1-.5348,1.9323,5.0048,5.0048,0,0,1-1.3976,1.41,9.3287,9.3287,0,0,1-1.8456.9762,16.9385,16.9385,0,0,1-1.8921.6287q.1472.4146.328.8358a8.8331,8.8331,0,0,0,.3943.8091q1.0559-.2673,2.193-.5684a8.7154,8.7154,0,0,1,2.2333-.3009,1.2121,1.2121,0,0,1,1.3506,1.3914,3.35,3.35,0,0,1-.3207,1.0364q-.3212.7555-.7489,1.6844t-.7489,1.745a3.7553,3.7553,0,0,0-.3213,1.2031q0,.6023.5215.6017a2.8329,2.8329,0,0,0,.6018-.0664q.3081-.0675.6017-.12a2.2162,2.2162,0,0,1,.8695-.8628,4.4044,4.4044,0,0,1,1.2505-.4747,5.805,5.805,0,0,1,1.2234-.1471,4.2175,4.2175,0,0,1,.6217.0537,1.4769,1.4769,0,0,1,.5818.2,4.8761,4.8761,0,0,0-.3075.8025,2.9936,2.9936,0,0,0-.1339.8424,1.5469,1.5469,0,0,0,.2943.8362A4.5113,4.5113,0,0,0,159.7286,44.1122Zm-9.04-15.6057a2.3864,2.3864,0,0,0-.2273-1.03.8688.8688,0,0,0-.8693-.4812,1.3369,1.3369,0,0,0-1.0632.4209,2.2821,2.2821,0,0,0-.5021,1.0232,5.374,5.374,0,0,0-.1333,1.1637,9.5821,9.5821,0,0,0,.1471,1.6581q.1464.8421.3474,1.6311a3.29,3.29,0,0,0,1.7853-1.8252,6.7316,6.7316,0,0,0,.5152-2.5608Z" transform="translate(0.0004 0.0001)" style="fill:#042635"/><path d="M174.8928,43.4839l-2.8483.4142a3.2174,3.2174,0,0,1-.5084.04q-.7354,0-.9225-.4215a2.5816,2.5816,0,0,1-.1875-1.05q0-1.1761.06-2.5137t.12-2.5476q.06-1.2106.06-1.9993,0-.6015-.0733-1.4109a7.9734,7.9734,0,0,0-.308-1.5846,3.1133,3.1133,0,0,0-.7218-1.2837,1.7586,1.7586,0,0,0-1.3308-.5083,2.77,2.77,0,0,0-.7218.0935,1.4535,1.4535,0,0,0-.6283.3612,3.0787,3.0787,0,0,0-.7622,1.4646,12.0868,12.0868,0,0,0-.3611,2.1865q-.0936,1.19-.1068,2.26t-.0138,1.6852q0,.8291.0209,1.698t.0934,1.5177a2.0731,2.0731,0,0,0,.2074.8362,1.2043,1.2043,0,0,0,.6017.4143v.3478l-2.7682.4143q-.134.0138-.2876.04a1.7637,1.7637,0,0,1-.3008.0265.8483.8483,0,0,1-.6421-.2671,2.451,2.451,0,0,1-.401-1.2843q-.1072-.9486-.147-2.7946-.0131-1.07.02-2.3872a15.4348,15.4348,0,0,1,.2876-2.6005,6.0535,6.0535,0,0,1,.87-2.2068,4.5437,4.5437,0,0,1,1.5043-1.3971,18.6332,18.6332,0,0,1,1.8385-.9563l-1.4707-2.22a4.6511,4.6511,0,0,1-.4281-.7488,1.3222,1.3222,0,0,1-.0934-.4813.6253.6253,0,0,1,.3545-.5818,1.71,1.71,0,0,1,.6753-.2207l3.49-.3479.1072.3479a1.38,1.38,0,0,0-.2477.4481,1.8859,1.8859,0,0,0-.06.5149,1.67,1.67,0,0,0,.1007.5348,1.8474,1.8474,0,0,0,.2339.4812l1.23,1.7785a4.101,4.101,0,0,1,2.387.7827,3.3113,3.3113,0,0,1,1.09,1.7785,10.2035,10.2035,0,0,1,.28,2.5076q0,1.6719-.1,3.35t-.1,3.3495a4.59,4.59,0,0,0,.1,1.0566q.1.4146.8091.6422Z" transform="translate(0.0004 0.0001)" style="fill:#042635"/><path d="M200.2645,43.4036l-2.5541.4945a2.0159,2.0159,0,0,1-.401.04,1.27,1.27,0,0,1-1.2306-.8358,9.6177,9.6177,0,0,1-.6018-2.4943q-.0805-.548-.1471-1.11t-.16-1.11a4.5206,4.5206,0,0,0-.4951-1.5912,1.5519,1.5519,0,0,0-.9358-.6958,6.5468,6.5468,0,0,0-1.6986-.1737,13.1982,13.1982,0,0,0-.5746,1.2168q-.3616.8428-.7356,1.8324t-.6354,1.8384a4.8215,4.8215,0,0,0-.2605,1.25,1.9752,1.9752,0,0,0,.12.7218.6649.6649,0,0,0,.5885.3746l-.08.3478-2.7409.3877a3.83,3.83,0,0,1-.5487.04q-1.5109,0-1.5109-1.5779a4.3034,4.3034,0,0,1,.16-1.1167q.1608-.5944.3348-1.09a26.13,26.13,0,0,1,2.16-4.4131,32.4855,32.4855,0,0,1,2.8279-3.9982l-2.7145.4547-.3208-4.2925a1.6676,1.6676,0,0,0-.2008-.7019.8791.8791,0,0,0-.5754-.4214v-.3347l3.1564-.7085a2.0491,2.0491,0,0,1,.4945-.067.786.786,0,0,1,.896.8291l.16,4.1991,3.7311-.6018q-.87,1.1371-1.6918,2.3268a27.8444,27.8444,0,0,0-1.5177,2.4607l2.7947-.7623a5.1092,5.1092,0,0,1,.5552-.1338,3.4513,3.4513,0,0,1,.5681-.04,1.6507,1.6507,0,0,1,1.4042,1.0293,12.57,12.57,0,0,1,1.03,3.584q.334,1.819.5348,2.7747a6.7655,6.7655,0,0,0,.3744,1.3242q.174.3677.4149.408Z" transform="translate(0.0004 0.0001)" style="fill:#042635"/><path d="M214.64,43.4839l-2.8484.4142a3.2159,3.2159,0,0,1-.5082.04q-.7356,0-.9225-.4215a2.5782,2.5782,0,0,1-.1875-1.05q0-.8152.047-1.9922t.12-2.5077q.0734-1.33.1405-2.6343t.114-2.4q.0468-1.0965.0464-1.7654a5.3676,5.3676,0,0,0-.5077-2.5736,1.6423,1.6423,0,0,0-1.5249-.9159,2.0613,2.0613,0,0,0-.6282.0935,1.3544,1.3544,0,0,0-.5482.3479,2.6572,2.6572,0,0,0-.408.6283,6.5388,6.5388,0,0,0-.4547,1.5314,25.22,25.22,0,0,0-.3611,3.089q-.14,2.013-.14,5.3023v2.0251q0,.3808.0138.6887a4.04,4.04,0,0,0,.1936,1.13q.154.4215.8893.6218v.3478l-2.7682.4143a2.885,2.885,0,0,1-.4812.04.98.98,0,0,1-.8025-.3612,2.3669,2.3669,0,0,1-.3943-.9562,10.2692,10.2692,0,0,1-.2008-1.3772q-.06-.7428-.0669-1.4043t-.0066-1.063q0-.9355.0066-1.859t.0337-1.8588a24.2363,24.2363,0,0,1,.2273-2.6946,8.5044,8.5044,0,0,1,.8689-2.5476,5.0285,5.0285,0,0,1,1.6051-1.892,6.5858,6.5858,0,0,1,2.2261-1.0028,10.3471,10.3471,0,0,1,2.4811-.3009,4.3574,4.3574,0,0,1,2.5945.662,3.3782,3.3782,0,0,1,1.2571,1.8186,9.1764,9.1764,0,0,1,.348,2.6409q0,2.4606-.1809,4.9346t-.18,4.9484a2.2968,2.2968,0,0,0,.1538,1.0566,1.15,1.15,0,0,0,.7556.3612Z" transform="translate(0.0004 0.0001)" style="fill:#042635"/><path d="M229.2431,43.4839l-2.8484.4142a3.2159,3.2159,0,0,1-.5082.04q-.7356,0-.9225-.4215a2.5782,2.5782,0,0,1-.1875-1.05q0-.7088.047-1.8384t.12-2.4607q.0734-1.3309.1406-2.6614t.1139-2.474q.0468-1.1432.0464-1.8655a8.8238,8.8238,0,0,0-.14-1.4839,3.3109,3.3109,0,0,0-.5754-1.411,1.5242,1.5242,0,0,0-1.3175-.595,1.731,1.731,0,0,0-1.6044,1.0566,7.9944,7.9944,0,0,0-.7422,2.7619,32.5253,32.5253,0,0,0-.1942,3.6708v1.03a12.4584,12.4584,0,0,0,.0471,1.25.9476.9476,0,0,0,.2743.6355,1.8668,1.8668,0,0,0,.7754.3341v.3611l-2.7682.5216c-.116.0179-.236.0377-.3611.06a2.1465,2.1465,0,0,1-.3744.0333,2.49,2.49,0,0,1-.3076-.02.3954.3954,0,0,1-.2672-.1537q-.12-.161-.2676-.3944a2.7693,2.7693,0,0,1-.2605-.9026,13.7849,13.7849,0,0,1-.1139-2.0995,19.1281,19.1281,0,0,1,.3274-3.6575,8.0981,8.0981,0,0,1,1.1437-2.9219,5.41,5.41,0,0,1,2.2732-1.9325,8.6817,8.6817,0,0,1,3.7045-.6886,4.3575,4.3575,0,0,1,2.594.662,3.3789,3.3789,0,0,1,1.2571,1.8186,9.1763,9.1763,0,0,1,.3479,2.6409q0,.8828-.0536,2.1865t-.1273,2.7416q-.0732,1.4374-.1272,2.7482t-.0532,2.2063a3.9644,3.9644,0,0,0,.0869.9563q.0866.3279.8225.4612Z" transform="translate(0.0004 0.0001)" style="fill:#042635"/><path d="M253.4373,43.4036l-2.8483.4143c-.0711.0092-.1446.0159-.22.02s-.15.0071-.2207.0071q-.7761,0-1.0033-.4414a2.4447,2.4447,0,0,1-.2273-1.1233q0-1.9791.0935-3.9451t.0942-3.9451a13.0913,13.0913,0,0,0-.1537-2.3467,1.5073,1.5073,0,0,0-.5354-1.016,2,2,0,0,0-1.09-.2478,2.7347,2.7347,0,0,0-.816.1206,1.8884,1.8884,0,0,0-.7219.428,2.783,2.783,0,0,0-.6549,1.0764,9.8143,9.8143,0,0,0-.4751,2.24,35.1565,35.1565,0,0,0-.18,4.0252q0,1.524.04,2.3733a8.4611,8.4611,0,0,0,.12,1.2241,1.1617,1.1617,0,0,0,.2008.5078,1.484,1.484,0,0,0,.5613.3611v.3479l-2.7548.4142a2.4249,2.4249,0,0,1-.4547.04.9286.9286,0,0,1-.6819-.281,2.7694,2.7694,0,0,1-.4276-1.0763,13.866,13.866,0,0,1-.214-2.9622q0-1.2435.12-2.6543a13.1538,13.1538,0,0,1,.5281-2.7416,6.57,6.57,0,0,1,1.2373-2.32q-.4551.0536-.9894.1205a7.2817,7.2817,0,0,1-.8562.0669,1.41,1.41,0,0,1-.6753-.1537.6035.6035,0,0,1-.2738-.6085l.16-4.2265a1.9518,1.9518,0,0,0-.08-.6217.5553.5553,0,0,0-.4413-.408v-.334l3.1559-.7086a2.0811,2.0811,0,0,1,.5083-.0668q.5209,0,.662.2135a1.1239,1.1239,0,0,1,.14.6155l-.0532,5.0148a6.204,6.204,0,0,1,2.2329-.8761,13.254,13.254,0,0,1,2.3937-.2207,4.577,4.577,0,0,1,2.5408.5885,2.9719,2.9719,0,0,1,1.21,1.6914,9.3961,9.3961,0,0,1,.328,2.6547q0,1.6581-.0934,3.31t-.0941,3.31a2.4256,2.4256,0,0,0,.214,1.2373,1.2421,1.2421,0,0,0,.6952.4613Z" transform="translate(0.0004 0.0001)" style="fill:#042635"/><path d="M273.5633,35.0991a2.3341,2.3341,0,0,1-.8091.4679,2.7331,2.7331,0,0,1-.9159.1737,2.264,2.264,0,0,1-2.0392-.8224,3.3055,3.3055,0,0,1-.4612-2.079l-2.7013.1869-.9625,6.6059q-.0536.4015-.1271.8893a6.0191,6.0191,0,0,0-.0733.8893,2.7532,2.7532,0,0,0,.1472.8892,1.0428,1.0428,0,0,0,.6018.635v.4413l-2.5.4685q-.2138.04-.4148.0732a2.6394,2.6394,0,0,1-.4276.0333q-.7761,0-.99-.4281a2.4859,2.4859,0,0,1-.2135-1.11,6.557,6.557,0,0,1,.053-.7554q.0537-.4476.0942-.7428l1.0829-7.5952-2.9552.2273a3.6914,3.6914,0,0,1-.4279,1.7384,3.5565,3.5565,0,0,1-1.17,1.3174,2.9974,2.9974,0,0,1-1.7184.5021,2.9382,2.9382,0,0,1-.6151-.08,1.1147,1.1147,0,0,1-.5613-.281,2.19,2.19,0,0,0,.548-1.09,5.5562,5.5562,0,0,0,.1605-1.21q0-.3739-.0132-.7822a3.0556,3.0556,0,0,0-.1207-.7692l7.0076-.5216q.08-.5618.1935-1.3235t.1942-1.4438a9.56,9.56,0,0,0,.08-.99,2.3849,2.3849,0,0,0-.2074-.949,1.1057,1.1057,0,0,0-.7019-.6422v-.214q.5746-.04,1.27-.0869t1.2972-.0732c.4015-.0179.6952-.0266.8827-.0266a1.27,1.27,0,0,1,.9829.3209,1.45,1.45,0,0,1,.2875.9895,9.6224,9.6224,0,0,1-.1072,1.05q-.1067.7822-.234,1.6515t-.2068,1.4308l6.3786-.4679a3.577,3.577,0,0,0-.1471.7488q-.0407.4146-.04.7623a6.2642,6.2642,0,0,0,.0471.662,3.6425,3.6425,0,0,0,.18.8025A.96.96,0,0,0,273.5633,35.0991Z" transform="translate(0.0004 0.0001)" style="fill:#042635"/><path d="M295.936,29.6032a8.3711,8.3711,0,0,1-.1674,1.5641q-.1674.87-.408,1.7251t-.4414,1.5248l-1.7785,6.0308a8.081,8.081,0,0,0-.2135.8761,4.9486,4.9486,0,0,0-.08.9026,1.96,1.96,0,0,0,.0733.495.5742.5742,0,0,0,.2737.3878v.4545q-.6153.12-1.3772.2539a8.0671,8.0671,0,0,1-1.3913.1339q-.95,0-1.17-.5818a3.8182,3.8182,0,0,1-.2206-1.3573,5.8838,5.8838,0,0,1,.1267-1.1632,11.13,11.13,0,0,1,.2876-1.1371l1.7521-5.643a4.2168,4.2168,0,0,0,.187-.7489q-.6692.1341-1.4575.2744a8.4522,8.4522,0,0,1-1.4711.14,2.7579,2.7579,0,0,1-1.5447-.408,1.5737,1.5737,0,0,1-.6217-1.4242,8.5557,8.5557,0,0,1,.1073-1.1969q.1067-.7285.4408-2.3871l-1.8319.2141q-.147,1.15-.3008,2.3t-.3009,2.3a2.6171,2.6171,0,0,1-.9092,1.8253,3.1188,3.1188,0,0,1-1.9657.5818,1.37,1.37,0,0,1-.4214-.0669,1.41,1.41,0,0,0-.4348-.0669,2.5753,2.5753,0,0,0-1.1564.2676l-1.0835.5349a2.58,2.58,0,0,1-1.1565.2671,1.64,1.64,0,0,1-1.5315-.7219,3.2568,3.2568,0,0,1-.4342-1.7117,7.567,7.567,0,0,1,.401-2.4607,5.1755,5.1755,0,0,1,1.3507-2.0862,5.6186,5.6186,0,0,1,1.9926-1.25,10.3376,10.3376,0,0,1,2.2865-.5349q1.19-.14,2.3539-.1935l3.8516-.2008q.5219-.0267,1.0431-.06t1.0432-.0332a1.4683,1.4683,0,0,1,.9358.2943,4.91,4.91,0,0,1,1.2439-.6621,4.068,4.068,0,0,1,1.3772-.234,2.5091,2.5091,0,0,1,2.0662.8291A3.3014,3.3014,0,0,1,295.936,29.6032Zm-14.2689-.8827a1.1291,1.1291,0,0,0-.2-.0133,1.3621,1.3621,0,0,0-1.05.5348,4.9,4.9,0,0,0-.7892,1.3169,9.3679,9.3679,0,0,0-.5017,1.5514,5.9112,5.9112,0,0,0-.1736,1.2372,2.0007,2.0007,0,0,0,.1538.7821.6278.6278,0,0,0,.6486.3678.9265.9265,0,0,0,.9159-.4347,3.4534,3.4534,0,0,0,.3139-1.0365Zm10.4576.8827a1.3713,1.3713,0,0,0-.2538-.8295.8991.8991,0,0,0-.776-.3475,1.3107,1.3107,0,0,0-.5149.1339.8907.8907,0,0,0-.421.3341,2.96,2.96,0,0,0-.2676.8224,4.564,4.564,0,0,0-.12.876,2.5523,2.5523,0,0,0,.354,1.25,1.1553,1.1553,0,0,0,1.0769.6355,1.0557,1.0557,0,0,0,.2068-.02c.0669-.0138.1318-.0245.1942-.0337q.147-.5884.334-1.4109A6.4821,6.4821,0,0,0,292.1247,29.6032Z" transform="translate(0.0004 0.0001)" style="fill:#042635"/><path d="M321.0533,43.4036l-2.5541.4945a2.0152,2.0152,0,0,1-.401.04,1.27,1.27,0,0,1-1.2306-.8358,9.6177,9.6177,0,0,1-.6018-2.4943q-.08-.548-.1471-1.11t-.16-1.11a4.5206,4.5206,0,0,0-.4951-1.5912,1.5519,1.5519,0,0,0-.9358-.6958,6.5457,6.5457,0,0,0-1.6984-.1737,13.1358,13.1358,0,0,0-.5748,1.2168q-.3616.8428-.7356,1.8324t-.6354,1.8384a4.8215,4.8215,0,0,0-.2605,1.25,1.9752,1.9752,0,0,0,.12.7218.6649.6649,0,0,0,.5884.3746l-.08.3478-2.741.3877a3.8291,3.8291,0,0,1-.5486.04q-1.5109,0-1.511-1.5779a4.3121,4.3121,0,0,1,.16-1.1167q.1608-.5944.3348-1.09a26.1225,26.1225,0,0,1,2.16-4.4131,32.4748,32.4748,0,0,1,2.8279-3.9982l-2.7145.4547-.3208-4.2925a1.6662,1.6662,0,0,0-.2008-.7019.8791.8791,0,0,0-.5754-.4214v-.3347l3.1564-.7085a2.0541,2.0541,0,0,1,.4945-.067.786.786,0,0,1,.896.8291l.1605,4.1991,3.731-.6018q-.87,1.1371-1.6918,2.3268a27.8444,27.8444,0,0,0-1.5177,2.4607l2.7947-.7623a5.1148,5.1148,0,0,1,.5552-.1338,3.4513,3.4513,0,0,1,.5681-.04,1.6509,1.6509,0,0,1,1.4043,1.0293,12.5726,12.5726,0,0,1,1.03,3.584q.334,1.819.5348,2.7747a6.7589,6.7589,0,0,0,.3745,1.3242q.1737.3677.4148.408Z" transform="translate(0.0004 0.0001)" style="fill:#042635"/><path d="M336.1108,43.4839l-2.8483.4142a3.2159,3.2159,0,0,1-.5082.04q-.7356,0-.9226-.4215a2.58,2.58,0,0,1-.1875-1.05q0-1.1761.06-2.5137t.1207-2.5476q.06-1.2106.06-1.9993,0-.6015-.0732-1.4109a7.9807,7.9807,0,0,0-.3081-1.5846,3.1135,3.1135,0,0,0-.7219-1.2837,1.7581,1.7581,0,0,0-1.3307-.5083,2.7706,2.7706,0,0,0-.7219.0935,1.455,1.455,0,0,0-.6283.3612,3.0776,3.0776,0,0,0-.7621,1.4646,12.1045,12.1045,0,0,0-.3612,2.1865q-.0934,1.19-.1068,2.26t-.0138,1.6852q0,.8291.0209,1.698t.0934,1.5177a2.0716,2.0716,0,0,0,.2075.8362,1.2032,1.2032,0,0,0,.6017.4143v.3478l-2.7681.4143q-.1341.0138-.2876.04a1.7657,1.7657,0,0,1-.3009.0265.8487.8487,0,0,1-.6422-.2671,2.4509,2.4509,0,0,1-.4009-1.2843q-.1074-.9486-.1471-2.7946-.013-1.07.02-2.3872a15.4141,15.4141,0,0,1,.2876-2.6005,6.0515,6.0515,0,0,1,.8694-2.2068,4.5431,4.5431,0,0,1,1.5044-1.3971,18.6316,18.6316,0,0,1,1.8384-.9563l-1.4707-2.22a4.6505,4.6505,0,0,1-.428-.7488,1.3223,1.3223,0,0,1-.0935-.4813.6252.6252,0,0,1,.3546-.5818,1.71,1.71,0,0,1,.6753-.2207l3.49-.3479.1073.3479a1.3822,1.3822,0,0,0-.2478.4481,1.89,1.89,0,0,0-.06.5149,1.6722,1.6722,0,0,0,.1006.5348,1.8509,1.8509,0,0,0,.234.4812l1.23,1.7785a4.1015,4.1015,0,0,1,2.3871.7827,3.3118,3.3118,0,0,1,1.09,1.7785,10.203,10.203,0,0,1,.28,2.5076q0,1.6719-.1,3.35t-.1,3.3495a4.596,4.596,0,0,0,.1,1.0566q.1.4146.8091.6422Z" transform="translate(0.0004 0.0001)" style="fill:#042635"/><path d="M356.3033,35.0991a2.3356,2.3356,0,0,1-.8091.4679,2.7336,2.7336,0,0,1-.9159.1737,2.2638,2.2638,0,0,1-2.0392-.8224,3.3055,3.3055,0,0,1-.4613-2.079l-2.7013.1869-.9625,6.6059q-.0537.4015-.1272.8893a6.0326,6.0326,0,0,0-.0732.8893,2.753,2.753,0,0,0,.147.8892,1.0438,1.0438,0,0,0,.6018.635v.4413l-2.5.4685q-.2138.04-.4148.0732a2.6391,2.6391,0,0,1-.4275.0333q-.7763,0-.99-.4281a2.4874,2.4874,0,0,1-.2136-1.11,6.535,6.535,0,0,1,.0532-.7554q.0537-.4476.0942-.7428l1.0828-7.5952-2.9551.2273a3.69,3.69,0,0,1-.4281,1.7384,3.5551,3.5551,0,0,1-1.17,1.3174,2.9977,2.9977,0,0,1-1.7185.5021,2.9381,2.9381,0,0,1-.615-.08,1.1154,1.1154,0,0,1-.5614-.281,2.19,2.19,0,0,0,.5481-1.09,5.5622,5.5622,0,0,0,.16-1.21q0-.3739-.0133-.7822a3.0554,3.0554,0,0,0-.12-.7692l7.0074-.5216q.0807-.5618.1937-1.3235t.1942-1.4438a9.532,9.532,0,0,0,.08-.99,2.3815,2.3815,0,0,0-.2074-.949,1.1058,1.1058,0,0,0-.7018-.6422v-.214q.5745-.04,1.27-.0869t1.2973-.0732c.4015-.0179.6951-.0266.8826-.0266a1.27,1.27,0,0,1,.9834.3209,1.45,1.45,0,0,1,.2876.9895,9.5979,9.5979,0,0,1-.1073,1.05q-.1065.7822-.234,1.6515t-.2068,1.4308l6.3786-.4679a3.59,3.59,0,0,0-.1471.7488q-.0405.4146-.04.7623a6.2639,6.2639,0,0,0,.0469.662,3.6358,3.6358,0,0,0,.18.8025A.96.96,0,0,0,356.3033,35.0991Z" transform="translate(0.0004 0.0001)" style="fill:#042635"/><path d="M372.7918,36.1959a4.76,4.76,0,0,1-.08.8557q-.0806.4413-.147.8555L372.03,41.063q-.0537.2682-.1.609a4.4557,4.4557,0,0,0-.0469.6083,1.3952,1.3952,0,0,0,.1206.5681.5233.5233,0,0,0,.4546.3139V43.59l-2.5945.2811q-.2276.0267-.4613.0536a4.1565,4.1565,0,0,1-.4745.0266,1.2868,1.2868,0,0,1-.7556-.1871.8388.8388,0,0,1-.2615-.7218,3.7479,3.7479,0,0,1,.0732-.7219q.0734-.374.1272-.7218l.8961-5.5634q-.4146.08-1.0432.2207t-1.27.281q-.642.14-1.1432.2339a4.5861,4.5861,0,0,1-.6753.0935,1.6768,1.6768,0,0,1-.95-.2273,2.2765,2.2765,0,0,1-.6421-.7621l-.8153.3212a1.66,1.66,0,0,1,.1267.5144,5.0969,5.0969,0,0,1,.0336.5283,3.5094,3.5094,0,0,1-1.0033,2.6677,3.7524,3.7524,0,0,1-2.7012.9562,1.6913,1.6913,0,0,1-.4679-.0732,1.2745,1.2745,0,0,1-.4281-.2074,4.6436,4.6436,0,0,0,.6754-1.1367,3.2227,3.2227,0,0,0,.2876-1.27,2.7182,2.7182,0,0,0-.1339-.7959,1.2475,1.2475,0,0,0-.4413-.6621l4.4533-1.6979A8.7657,8.7657,0,0,1,362.12,32.9a9.1492,9.1492,0,0,1-.2273-1.8518,4.592,4.592,0,0,1,.95-3.0624,5.2043,5.2043,0,0,1,2.4668-1.6044,10.5189,10.5189,0,0,1,3.2028-.4818,3.9262,3.9262,0,0,1,2.4474.7428,2.7121,2.7121,0,0,1,.9762,2.3069,3.4648,3.4648,0,0,1-.5348,1.9324,5.0077,5.0077,0,0,1-1.3977,1.41,9.3275,9.3275,0,0,1-1.8455.9761,16.939,16.939,0,0,1-1.8921.6288q.1471.4146.3278.8358a8.9,8.9,0,0,0,.3945.8091q.5884-.12,1.4175-.2942T370.05,34.94a8.681,8.681,0,0,1,1.364-.1338,1.2241,1.2241,0,0,1,1.378,1.3894Zm-4.52-7.6894a2.3877,2.3877,0,0,0-.2272-1.03.87.87,0,0,0-.87-.4813,1.3369,1.3369,0,0,0-1.063.421,2.28,2.28,0,0,0-.5016,1.0232,5.3731,5.3731,0,0,0-.1333,1.1636,9.5726,9.5726,0,0,0,.1471,1.6582q.1464.8421.3473,1.6311a3.29,3.29,0,0,0,1.7854-1.8253,6.7331,6.7331,0,0,0,.5148-2.5608Z" transform="translate(0.0004 0.0001)" style="fill:#042635"/><path d="M391.0323,43.2964a1.928,1.928,0,0,1-.8892.4949,3.8123,3.8123,0,0,1-1.0227.16,2.6188,2.6188,0,0,1-2.12-.9359,3.3527,3.3527,0,0,1-.7821-2.22h-6.0313a4.1388,4.1388,0,0,1-.9226,2.22,2.659,2.659,0,0,1-2.1664.9359,8.0272,8.0272,0,0,1-.9961-.0869,1.656,1.656,0,0,1-.93-.3545,1.097,1.097,0,0,0,.448-.6283,4.4449,4.4449,0,0,0,.2073-.9563q.0537-.501.0537-.7687a4.7967,4.7967,0,0,0-.0469-.6753q-.0468-.328-.0869-.6622H381.15a19.4221,19.4221,0,0,1-2.059-3.778,11.1153,11.1153,0,0,1-.7893-4.2189,4.34,4.34,0,0,1,.7289-2.5275,5.7359,5.7359,0,0,1,1.8921-1.7251,9.3828,9.3828,0,0,1,2.5077-.9894,11.126,11.126,0,0,1,2.5874-.3209,3.6154,3.6154,0,0,1,2.2869.6018,2.6869,2.6869,0,0,1,.7488,2.1929,4.0039,4.0039,0,0,1-.5753,2.1731,4.8371,4.8371,0,0,1-1.5177,1.5176,7.519,7.519,0,0,1-2.06.91,10.1456,10.1456,0,0,1-2.2.3606,15.7865,15.7865,0,0,0,1.07,2.9293,16.2724,16.2724,0,0,0,1.6183,2.6742H390.43q-.0674.2813-.1139.5818a3.8636,3.8636,0,0,0-.0464.5951,6.2475,6.2475,0,0,0,.1736,1.3169A2.2979,2.2979,0,0,0,391.0323,43.2964Zm-5.59-14.4958a2.4293,2.4293,0,0,0-.2272-.9827.8.8,0,0,0-.7887-.515,1.3612,1.3612,0,0,0-.963.3744,2.809,2.809,0,0,0-.6486.9358,5.6846,5.6846,0,0,0-.3678,1.1508,5.1776,5.1776,0,0,0-.12,1.0161,13.4007,13.4007,0,0,0,.16,2.06,4.248,4.248,0,0,0,2.1731-1.5182,4.1351,4.1351,0,0,0,.7819-2.5212Z" transform="translate(0.0004 0.0001)" style="fill:#042635"/><path d="M407.3333,31.1673a3.1455,3.1455,0,0,1-1.0431.3678,6.07,6.07,0,0,1-1.0963.1139,7.1,7.1,0,0,1-1.5779-.1674,2.2041,2.2041,0,0,1-1.19-.6753,2.2467,2.2467,0,0,1-.4545-1.5378,2.7491,2.7491,0,0,1,.0132-.3208,4.0652,4.0652,0,0,0-2.4872.6886,4.2327,4.2327,0,0,0-1.3914,1.8318,11.6288,11.6288,0,0,0-.6952,2.5212,22.9981,22.9981,0,0,0-.234,2.2937q-.06,1.1562-.06,2.3063,0,.4413.0266,1.1836A6.34,6.34,0,0,0,397.35,41.19a1.3853,1.3853,0,0,0,.662.93,1.619,1.619,0,0,0,.595.16q.3273.0267.6218.0265a5.3,5.3,0,0,0,1.2372-.1674,3.0373,3.0373,0,0,0,1.1431-.5149,1.6458,1.6458,0,0,1,.6887-1.2234,3.27,3.27,0,0,1,1.3506-.5149,9.3285,9.3285,0,0,1,1.4374-.12,2.9047,2.9047,0,0,1,.4081.0337,1.8674,1.8674,0,0,1,.408.1q-.0935.0537-.1405.3274a4.5284,4.5284,0,0,0-.06.5348q-.0138.2616-.0138.3147a4.3229,4.3229,0,0,0,.1875,1.1566,1.7514,1.7514,0,0,0,.6283.9827,1.8513,1.8513,0,0,1-1.063.6487,5.0177,5.0177,0,0,1-1.2639.1936,3.7119,3.7119,0,0,1-1.4109-.2805,1.79,1.79,0,0,1-.996-1.0031q-.75.2276-1.792.5015t-2.0863.4747a9.6972,9.6972,0,0,1-1.7919.2007,2.4993,2.4993,0,0,1-1.5846-.4481,2.5605,2.5605,0,0,1-.8291-1.17,5.8009,5.8009,0,0,1-.3207-1.5641q-.0606-.843-.06-1.6321,0-.9094.0266-1.8323t.1072-1.8318a18.7763,18.7763,0,0,1,.3341-2.1194,6.6614,6.6614,0,0,1,.7422-1.9391,4.3648,4.3648,0,0,1,1.4513-1.4911,12.7315,12.7315,0,0,1,3.5237-1.6117,18.93,18.93,0,0,1,3.5906-.6548q1.7515-.1412,3.1558-.114a9.954,9.954,0,0,0,.28,1.8987A5.8735,5.8735,0,0,0,407.3333,31.1673Z" transform="translate(0.0004 0.0001)" style="fill:#042635"/><path d="M129.3662,71.0518a2.57,2.57,0,0,1-.8911.5156,3.0061,3.0061,0,0,1-1.0088.1914q-2.7693,0-2.769-2.8427c0-.0591.0019-.1177.0073-.1768s.0073-.1177.0073-.1768l-2.9756.2061-1.06,7.2617q-.0588.4422-.14.9868a6.7516,6.7516,0,0,0-.081.9868,3.028,3.028,0,0,0,.1621.98,1.1478,1.1478,0,0,0,.6626.6992v.4863l-2.7544.5156c-.1572.0293-.3091.0567-.4566.0811a2.8809,2.8809,0,0,1-.4711.0366q-.8548,0-1.09-.4712a2.7379,2.7379,0,0,1-.2353-1.2227q0-.3384.0366-.7587t.081-.7436l1.2374-8.5137-3.2554.25a4.0633,4.0633,0,0,1-.4712,1.9146,3.9163,3.9163,0,0,1-1.2886,1.4511,3.3024,3.3024,0,0,1-1.893.5523,3.1946,3.1946,0,0,1-.6773-.0884,1.2313,1.2313,0,0,1-.6187-.3091,2.4154,2.4154,0,0,0,.6035-1.2007,6.0918,6.0918,0,0,0,.1767-1.3331q0-.4124-.0146-.8617a3.3733,3.3733,0,0,0-.1323-.8468l7.7182-.5747q.0881-.6181.2134-1.4433t.2134-1.5762a10.5037,10.5037,0,0,0,.0884-1.1192,1.2728,1.2728,0,0,0-.5079-1.0678,3.1753,3.1753,0,0,0-1.0976-.5528,5.4451,5.4451,0,0,1-2.6216.6338,5.2873,5.2873,0,0,1-.7661-.0664,2.469,2.469,0,0,1-.7363-.2138,1.44,1.44,0,0,0,.6406-.7657,2.7308,2.7308,0,0,0,.1987-.9868,4.1107,4.1107,0,0,0-.147-1.0019,1.4259,1.4259,0,0,0-.5156-.8393,4.5255,4.5255,0,0,1,1.1636-.2725,10.5279,10.5279,0,0,1,1.1929-.081,8.8962,8.8962,0,0,1,1.3183.103,2.4368,2.4368,0,0,1,1.1636.4785,1.4328,1.4328,0,0,1,.479,1.2007,1.3813,1.3813,0,0,1-.2577.81,2.9309,2.9309,0,0,1-.5967.6333q.648-.044,1.4214-.0957t1.4512-.0811q.6765-.0292,1.0161-.0293a1.3983,1.3983,0,0,1,1.0825.3535,1.5989,1.5989,0,0,1,.3169,1.09,10.3453,10.3453,0,0,1-.1182,1.1782q-.1179.8547-.2573,1.8046t-.2285,1.5683l7.0259-.5151a3.9685,3.9685,0,0,0-.1621.8247q-.0441.4571-.044.8394a6.9615,6.9615,0,0,0,.0513.7143,4.114,4.114,0,0,0,.1992.8916A1.0571,1.0571,0,0,0,129.3662,71.0518Z" transform="translate(0.0004 0.0001)" style="fill:#042635"/><path d="M151.6812,76.0008a2.2651,2.2651,0,0,1-.8985.2871,6.9825,6.9825,0,0,1-.9424.0811,3.3624,3.3624,0,0,1-2.2392-.6851,2.6741,2.6741,0,0,1-.7954-2.187,3.89,3.89,0,0,0-2.15.6626,3.0372,3.0372,0,0,0-.8247,2.0772q-.0594.5742-.0664,1.1489t-.0074,1.1484l-5.6416,1.8413a8.4519,8.4519,0,0,1-2.6953.4273,4.2646,4.2646,0,0,1-2.7983-.9429,3.27,3.27,0,0,1-1.1489-2.6807,5.61,5.61,0,0,1,.6552-2.666,10.6537,10.6537,0,0,1,1.6939-2.3345,28.9863,28.9863,0,0,1,2.2095-2.099q1.171-1.0014,2.2094-1.9444a11.5937,11.5937,0,0,0,1.6939-1.8706,3.22,3.22,0,0,0,.6552-1.8706,1.3348,1.3348,0,0,0-.081-.4492.3751.3751,0,0,0-.3755-.2431v-.5449l3.2847-.5742a5.0932,5.0932,0,0,1,.8247-.0591q.6481,0,.7734.4784a3.9128,3.9128,0,0,1,.1255.9946,4.1077,4.1077,0,0,1-.6338,2.2017,9.831,9.831,0,0,1-1.6421,1.9741q-1.0092.95-2.1284,1.9t-2.1284,1.9736a9.6352,9.6352,0,0,0-1.6426,2.2022,5.4235,5.4235,0,0,0-.6333,2.6074q0,1.3843.8027,1.6865a6.2861,6.2861,0,0,0,2.1582.3018,6.4458,6.4458,0,0,1,.9722-3.395,5.65,5.65,0,0,1,2.3345-1.937,14.6668,14.6668,0,0,1,3.3657-1.0459q1.1931-.2352,2.4155-.3829t2.43-.2651a16.83,16.83,0,0,0,.14,2.1577A4.991,4.991,0,0,0,151.6812,76.0008Z" transform="translate(0.0004 0.0001)" style="fill:#042635"/><path d="M172.6855,75.1026a4.4,4.4,0,0,1-.9277,2.9385,3.5168,3.5168,0,0,1-2.8428,1.0971,16.271,16.271,0,0,1-2.35-.1767,16.8332,16.8332,0,0,0-2.4228-.1768,16.16,16.16,0,0,0-1.8853.1109,7.5007,7.5007,0,0,0-1.8266.4493,5.758,5.758,0,0,0-1.1343.5595,10.6852,10.6852,0,0,1-1.1343.626,2.7508,2.7508,0,0,1-1.1929.2725,2.4666,2.4666,0,0,1-2.1357-.9278,3.7429,3.7429,0,0,1-.6777-2.2685,5.694,5.694,0,0,1,.6777-2.6367,13.9163,13.9163,0,0,1,1.7231-2.5552q1.046-1.2453,2.1656-2.3643,1.045-1.0458,1.959-2.0327a13.68,13.68,0,0,0,1.48-1.8706,3.0811,3.0811,0,0,0,.5674-1.6352,1.1729,1.1729,0,0,0-.1621-.5816.666.666,0,0,0-.4712-.3462V62.98l3.0781-.7656a3.7079,3.7079,0,0,1,.8106-.0884.8735.8735,0,0,1,.7729.4639,1.6981,1.6981,0,0,1,.2871.8911,5.783,5.783,0,0,1-1.0825,3.3877A18.5248,18.5248,0,0,1,163.45,69.756q-.8255.7655-1.6348,1.5537t-1.4438,1.5244a6.3986,6.3986,0,0,1,1.2373-.3164,8.4573,8.4573,0,0,1,1.2666-.0957,3.1976,3.1976,0,0,1,2.0771.5742,2.5031,2.5031,0,0,1,.6924,2.0181,5.9459,5.9459,0,0,1-.1841,1.3916,4.9648,4.9648,0,0,1-.5083,1.3184l2.9019.2065a4.0628,4.0628,0,0,0,.53-1.186,4.7624,4.7624,0,0,0,.1914-1.274,4.9956,4.9956,0,0,0-.1328-1.09A3.7536,3.7536,0,0,0,168.06,73.35h4.3453a1.7794,1.7794,0,0,1,.228.8692Q172.6858,74.8525,172.6855,75.1026Zm-11.2236.5156a2.4656,2.4656,0,0,0-.2505-1.1641,1.0433,1.0433,0,0,0-1.0166-.4712,1.1547,1.1547,0,0,0-.4785.1031,2.1021,2.1021,0,0,0-.4346.2651,5.3554,5.3554,0,0,0-.4858,1.1563,4.5021,4.5021,0,0,0-.1768,1.26,2.2385,2.2385,0,0,0,.2652,1.3771,1.2456,1.2456,0,0,0,.9131.2724,1.1141,1.1141,0,0,0,.9423-.5156,3.6034,3.6034,0,0,0,.5455-1.1782A4.4587,4.4587,0,0,0,161.4619,75.6182Z" transform="translate(0.0004 0.0001)" style="fill:#042635"/><path d="M190.7881,70.065a14.47,14.47,0,0,1-.2871,2.8574q-.2871,1.4289-.5747,2.8652a14.7964,14.7964,0,0,0-.2871,2.9087,2.3778,2.3778,0,0,0,.0737.5967.5031.5031,0,0,0,.4419.3608V80.17l-3.0787.3681c-.1275.01-.2554.022-.3828.0367a3.2434,3.2434,0,0,1-.3829.0224.7506.7506,0,0,1-.6186-.2358,1.6,1.6,0,0,1-.1919-.9429,18.2435,18.2435,0,0,1,.1842-2.3052q.1843-1.3915.4346-2.9311t.4345-2.916a17.6831,17.6831,0,0,0,.1841-2.2613,3.3314,3.3314,0,0,0-.4346-1.76A1.7323,1.7323,0,0,0,184.69,66.53a2.9221,2.9221,0,0,0-1.9516.7218,5.9173,5.9173,0,0,0-1.3916,1.7456,8.6662,8.6662,0,0,0-.7808,1.9663h1.7085l-1.7231,5.9653q-.0594.2065-.1621.6041t-.1914.7661a2.6117,2.6117,0,0,0-.0885.5156,1.5852,1.5852,0,0,0,.1323.7143.8008.8008,0,0,0,.501.3755v.3828l-3.0493.4566c-.0684.01-.1348.0176-.1988.0225s-.13.0073-.1987.0073q-.7659,0-.95-.5156a3.4041,3.4041,0,0,1-.1841-1.149,12.22,12.22,0,0,1,.6778-3.9917,11.6537,11.6537,0,0,1,1.9443-3.55l-2.6221-.0884a7.0661,7.0661,0,0,1,2.2241-3.6826q-.5887.0447-1.34.1035t-1.06.0586a.4476.4476,0,0,1-.39-.1543,1.5826,1.5826,0,0,1-.11-.7588V62.73a2.49,2.49,0,0,0-.1255-.8174.6939.6939,0,0,0-.6554-.42v-.3535l3.5352-1.0015a1.8846,1.8846,0,0,1,.5-.0737.6684.6684,0,0,1,.663.3242,1.6581,1.6581,0,0,1,.1622.751v5.7891a9.9844,9.9844,0,0,1,3.1445-1.2227,16.5012,16.5012,0,0,1,3.3657-.3535,5.0343,5.0343,0,0,1,3.5938,1.0825A4.9075,4.9075,0,0,1,190.7881,70.065Z" transform="translate(0.0004 0.0001)" style="fill:#042635"/><path d="M221.08,64.9981a9.1939,9.1939,0,0,1-.1841,1.7231q-.1839.9581-.4492,1.9T219.9608,70.3l-1.9589,6.6431a8.9178,8.9178,0,0,0-.2359.9643,5.4566,5.4566,0,0,0-.0884.9947,2.18,2.18,0,0,0,.0811.5449.6347.6347,0,0,0,.3017.4272v.5q-.6774.1326-1.517.28a8.8854,8.8854,0,0,1-1.5318.1474q-1.0458,0-1.2886-.6406a4.2011,4.2011,0,0,1-.2431-1.4951,6.4989,6.4989,0,0,1,.14-1.2812,12.237,12.237,0,0,1,.3169-1.2525l1.93-6.2158a4.6287,4.6287,0,0,0,.206-.8247q-.7366.1473-1.6055.3018a9.2477,9.2477,0,0,1-1.62.1548,3.0352,3.0352,0,0,1-1.7013-.4494,1.7319,1.7319,0,0,1-.685-1.5687,9.416,9.416,0,0,1,.1177-1.3179q.1178-.8026.4864-2.6294l-2.0181.2359q-.1626,1.2669-.3316,2.5332t-.3316,2.5337a2.8815,2.8815,0,0,1-1.0015,2.01,3.43,3.43,0,0,1-2.165.6411,1.4979,1.4979,0,0,1-.4639-.0737,1.5442,1.5442,0,0,0-.479-.0737,2.84,2.84,0,0,0-1.2739.2944q-.5968.2952-1.1933.5894a2.841,2.841,0,0,1-1.2739.2944,1.8052,1.8052,0,0,1-1.6865-.7954,3.5831,3.5831,0,0,1-.4785-1.8853,8.3245,8.3245,0,0,1,.4419-2.71,5.693,5.693,0,0,1,1.4873-2.298,6.1991,6.1991,0,0,1,2.1948-1.3774,11.3629,11.3629,0,0,1,2.5186-.5893q1.311-.1546,2.5927-.2135l4.2417-.2207q.5749-.0291,1.149-.0664t1.1488-.0371a1.6187,1.6187,0,0,1,1.0312.3242,5.4427,5.4427,0,0,1,1.37-.729,4.4773,4.4773,0,0,1,1.517-.2578,2.7636,2.7636,0,0,1,2.2759.9131A3.6372,3.6372,0,0,1,221.08,64.9981Zm-15.7163-.9722a1.2264,1.2264,0,0,0-.2207-.0146,1.5009,1.5009,0,0,0-1.1563.5888,5.39,5.39,0,0,0-.8691,1.4512,10.2866,10.2866,0,0,0-.5524,1.7085,6.4989,6.4989,0,0,0-.1914,1.3623,2.2048,2.2048,0,0,0,.1695.8618.6911.6911,0,0,0,.7143.4053,1.02,1.02,0,0,0,1.0088-.479,3.8092,3.8092,0,0,0,.3462-1.1416Zm11.5185.9722a1.5061,1.5061,0,0,0-.28-.9131.9882.9882,0,0,0-.8545-.3833,1.4465,1.4465,0,0,0-.5668.1475.9844.9844,0,0,0-.4639.3681,3.2675,3.2675,0,0,0-.2949.9058,5.0315,5.0315,0,0,0-.1324.9648,2.8129,2.8129,0,0,0,.39,1.3775,1.274,1.274,0,0,0,1.186.7,1.1187,1.1187,0,0,0,.228-.0225q.1107-.0219.2139-.0366.1618-.648.3682-1.5542a7.1759,7.1759,0,0,0,.2065-1.554Z" transform="translate(0.0004 0.0001)" style="fill:#042635"/><path d="M235.7651,76.6934a3.1977,3.1977,0,0,1-.6406,2.0474,3.8685,3.8685,0,0,1-1.6494,1.2075,5.7937,5.7937,0,0,1-2.1436.3979q-1.2516,0-2.5332.1177t-2.5337.28a5.6451,5.6451,0,0,1-.707.0444,3.2108,3.2108,0,0,1-1.6055-.3828,1.4813,1.4813,0,0,1-.6772-1.4141,1.69,1.69,0,0,1,.1841-.6557q.1838-.405.3017-.6406,1.2517-2.4156,2.43-4.6543t2.3716-4.5518l-2.6953.3389q-.2358.03-.4717.0591a3.8053,3.8053,0,0,1-.4712.0293q-1.06,0-1.0161-.9869l.1914-4.7578a1.3516,1.3516,0,0,0-.0371-.2944.2147.2147,0,0,0-.2134-.1768v-.3535l2.8721-.3974a4.0081,4.0081,0,0,1,.4126-.03,1.1722,1.1722,0,0,1,1.311,1.34q0,.2652-.0591,1.0166t-.125,1.6421q-.0666.8913-.1254,1.6128.6042-.0732,1.2153-.1543t1.2153-.1548q.3531-.044.832-.0957a7.4074,7.4074,0,0,1,.7437-.0518,2.1092,2.1092,0,0,1,.8838.1255q.2358.1254.2358.626a2.9346,2.9346,0,0,1-.3242.9131q-.3237.6928-.8174,1.6274-.4937.9361-1.0161,1.8858t-.9429,1.7012q-.42.7506-.5815,1.06,1.09-.074,2.3345-.1621t2.0107-.0884a1.7447,1.7447,0,0,1,1.377.523A2.0416,2.0416,0,0,1,235.7651,76.6934Zm-4.227.5742a1.1029,1.1029,0,0,0-.5156-.9941,2.0051,2.0051,0,0,0-1.105-.3316c-.147,0-.2945.0054-.4419.0147s-.2944.0151-.4419.0151q-.0587.1034-.2651.4859t-.4493.8471q-.2424.4637-.4267.8321a1.6238,1.6238,0,0,0-.1841.4565.6348.6348,0,0,0,.4565.6851,2.9655,2.9655,0,0,0,.8687.14,2.9083,2.9083,0,0,0,1.7309-.5522,1.8421,1.8421,0,0,0,.7735-1.5986Z" transform="translate(0.0004 0.0001)" style="fill:#042635"/><path d="M260.5991,72.083a3.1337,3.1337,0,0,1-1.1343.6407,3.98,3.98,0,0,1-1.2812.2431,2.4524,2.4524,0,0,1-2.0034-.7216,3.187,3.187,0,0,1-.5889-2.0625c0-.108.002-.2134.0073-.3165s.0122-.2084.022-.3168l-2.2978.1181a4.8439,4.8439,0,0,1-1.79,2.1358,4.7351,4.7351,0,0,1-2.6733.7954,6.8149,6.8149,0,0,1-1.1783-.1035,7.482,7.482,0,0,1-1.1489-.2945,13.5567,13.5567,0,0,0,.648,3.8594,3.2713,3.2713,0,0,0,1.7749,1.9438,9.2917,9.2917,0,0,0,3.6455.56q.6774,0,1.355-.03t1.3554-.0884c0,.1968.0044.4888.0147.8765a11.8785,11.8785,0,0,0,.0957,1.2153,4.0137,4.0137,0,0,0,.2871,1.1045.8271.8271,0,0,0,.5748.5454,2.4661,2.4661,0,0,1-1.0977.3829,8.6012,8.6012,0,0,1-1.1709.103,2.9671,2.9671,0,0,1-2.2905-.7954,3.7578,3.7578,0,0,1-.8467-2.3125q-.5455.0145-1.083.0366t-1.0825.0225a11.501,11.501,0,0,1-2.8354-.3316,2.8771,2.8771,0,0,1-1.8189-1.1416q-.31.3537-.6406.6924a6.8159,6.8159,0,0,1-.7144.6333,1.0283,1.0283,0,0,1,.4268.6631,3.4174,3.4174,0,0,1,.1181.81,2.2452,2.2452,0,0,1-.4716,1.4727,2.77,2.77,0,0,1-1.2149.8472,4.4456,4.4456,0,0,1-1.54.2724,4.932,4.932,0,0,1-.8321-.081,3.1041,3.1041,0,0,1-.8027-.2432.769.769,0,0,0,.3018-.5156,5.0284,5.0284,0,0,0,.1255-.8174q.0291-.42.0293-.5967a4.5267,4.5267,0,0,0-.1475-1.09,9.18,9.18,0,0,0,4.7285-2.99,10.5717,10.5717,0,0,1-.8838-2.6,13.4216,13.4216,0,0,1-.2949-2.7324,12.4135,12.4135,0,0,1,.376-3.1079,5.8193,5.8193,0,0,1,1.333-2.5112,5.1472,5.1472,0,0,1,2.7246-1.4654V62.6408q-.5742.0593-1.1563.0664a10.2543,10.2543,0,0,0-1.1562.081,3.6461,3.6461,0,0,1-1.7378,1.1489,8.0356,8.0356,0,0,1-2.0918.25,4.2354,4.2354,0,0,1-.7808-.0884,1.9633,1.9633,0,0,1-.7363-.28,2.5319,2.5319,0,0,0,.8838-1.959,2.5718,2.5718,0,0,0-.2061-1.0532,3.652,3.652,0,0,0-.5893-.9058,8.19,8.19,0,0,1,1.4287-.25q.7068-.0587,1.4434-.0591a2.2223,2.2223,0,0,1,2.4343,1.9878q.01.0959.011.1922l8.4692-.6925a2.4817,2.4817,0,0,1,.7735-1.5244,3.067,3.067,0,0,1,1.4288-.67,9.0565,9.0565,0,0,1,1.7309-.1621,5.2669,5.2669,0,0,1,.6187.0371q.309.0366.6186.081a1.6783,1.6783,0,0,0-.2652.751,7.3919,7.3919,0,0,0-.0444.7954,9.7941,9.7941,0,0,0,.0665,1.1343,1.3215,1.3215,0,0,0,.5668.9425,2.0757,2.0757,0,0,1-1.2519.53,11.5766,11.5766,0,0,1-1.3995.1034,5.437,5.437,0,0,1-1.4287-.17,2.3462,2.3462,0,0,1-1.1636-.8325q-.7068.0447-1.4214.1031t-1.4213.1474v2.2255a5.1287,5.1287,0,0,1,2.5557.7071,2.7223,2.7223,0,0,1,.8911,2.4008c0,.1475-.0049.2945-.0146.4419s-.025.2945-.0445.4419l6.1719-.3974a5.4322,5.4322,0,0,0-.2061,1.4726,5.9484,5.9484,0,0,0,.1768,1.355A1.6146,1.6146,0,0,0,260.5991,72.083Zm-10.9-4.89a2.4493,2.4493,0,0,0-.3164-1.2891,1.2734,1.2734,0,0,0-1.186-.5229,1.5667,1.5667,0,0,0-.92.2725,2.0683,2.0683,0,0,0-.5967,1.2817,18.0283,18.0283,0,0,0-.2061,3.2476v1.06a2.4291,2.4291,0,0,0,1.8853-.5449,3.6017,3.6017,0,0,0,1.0239-1.6128,6.1427,6.1427,0,0,0,.3161-1.8922Z" transform="translate(0.0004 0.0001)" style="fill:#042635"/><path d="M288.4233,67.9883a6.5826,6.5826,0,0,1-.5522,2.74,4.4764,4.4764,0,0,1-1.6353,1.9365,4.775,4.775,0,0,1-2.6879.7143c-.2554,0-.5132-.0092-.7735-.0293s-.5181-.0292-.7734-.0292a2.2973,2.2973,0,0,0-.6992.14q-.42.1405-.7144.2139a6.5612,6.5612,0,0,1-1.8413.28,2.8148,2.8148,0,0,1-1.2593-.2139q-.4058-.2131-.4053-1.1411a6.0751,6.0751,0,0,1,.0738-.9429q.0732-.471.1767-.9277l1.149-5.4058-1.5171.1914-2.7989,7.5117a3.6381,3.6381,0,0,1-1.2812,1.8633,4.0742,4.0742,0,0,1-2.2241.5083q-.4425,0-.8765-.0293t-.8765-.03a2.49,2.49,0,0,0-1.1123.2578q-.5229.2578-1.1118.5157a3.4363,3.4363,0,0,1-1.3847.2578,2.5434,2.5434,0,0,1-2.04-.8692,3.1508,3.1508,0,0,1-.7436-2.1211A5.7451,5.7451,0,0,1,263,71.1182a10.84,10.84,0,0,1,1.23-2.1577,12.7793,12.7793,0,0,1,1.5244-1.7529,6.828,6.828,0,0,1,2.1138-1.4214,9.115,9.115,0,0,1,2.2978-.604q1.2-.1547,2.541-.2134a18.4372,18.4372,0,0,0,2.2681-.2578q1.1191-.1992,2.2539-.3462,1.2224-.1619,2.4448-.2139t2.4453-.0659l.28.4268q.5889-.2352,1.333-.5079a4.0252,4.0252,0,0,1,1.377-.2724,2.804,2.804,0,0,1,1.9077.6333,3.69,3.69,0,0,1,1.0679,1.6128A6.1166,6.1166,0,0,1,288.4233,67.9883Zm-15.8046-1.6938a1.54,1.54,0,0,0-.6924-.1768,3.1572,3.1572,0,0,0-2.18.8027,6.1622,6.1622,0,0,0-1.4507,1.9517,13.182,13.182,0,0,0-.8467,2.2241q-.1032.427-.2065.8985a4.321,4.321,0,0,0-.103.9277,1.7252,1.7252,0,0,0,.3095.9575.9684.9684,0,0,0,.854.4712,1.18,1.18,0,0,0,.84-.3535,3.3871,3.3871,0,0,0,.626-.8247,7.9479,7.9479,0,0,0,.4047-.8394Zm11.4,1.8115a10.212,10.212,0,0,0-.0586-1.0606,2.0471,2.0471,0,0,0-.3315-.9575,1.0527,1.0527,0,0,0-.9355-.3974,2.2954,2.2954,0,0,0-.25.0146,1.8767,1.8767,0,0,0-.25.044l-.8252,4.6694-.0586.3828a2.4852,2.4852,0,0,0-.03.3833q0,.9867.9429.9868a1.1246,1.1246,0,0,0,.935-.4717,3.2754,3.2754,0,0,0,.5454-1.1562,8.3558,8.3558,0,0,0,.25-1.355q.0667-.67.0664-1.0825Z" transform="translate(0.0004 0.0001)" style="fill:#042635"/><path d="M303.6978,68.813a.9207.9207,0,0,1-.1031.4126l-4.5219,9.3677a1.2565,1.2565,0,0,0-.1475.56.48.48,0,0,0,.3535.5009v.545l-2.8428.5156a3.2909,3.2909,0,0,1-.6479.0591,1.9526,1.9526,0,0,1-.9942-.25.9325.9325,0,0,1-.4345-.8838,1.7739,1.7739,0,0,1,.0884-.5522q.0878-.2724.1914-.523l4.5219-9.9131h-4.1684l1.5171-3.5644a2.4759,2.4759,0,0,0,.206-.9722q0-.9132-.4492-1.09a4.4115,4.4115,0,0,0-1.4805-.1768,3.8731,3.8731,0,0,0-.81.103,2.5967,2.5967,0,0,1,.0444.4859,3.37,3.37,0,0,1-.5376,1.8559,4.043,4.043,0,0,1-1.4067,1.34,3.685,3.685,0,0,1-1.8706.5008,6.5778,6.5778,0,0,1-.7364-.0591,1.3173,1.3173,0,0,1-.6923-.2353,9.4792,9.4792,0,0,0,.67-1.1636,2.8946,2.8946,0,0,0,.3608-1.2524,3.0513,3.0513,0,0,0-.4858-1.6939,11.1035,11.1035,0,0,1,2.2978-.6186,26.5562,26.5562,0,0,1,2.6441-.3091q1.3323-.0885,2.3637-.0884a10.3266,10.3266,0,0,1,3.3877.4492q1.2516.45,1.2525,1.3184a3.5042,3.5042,0,0,1-.2652.9424q-.2652.7074-.6186,1.5469t-.6484,1.5024q-.2944.6629-.3682.81h3.771Q303.6976,68.2829,303.6978,68.813Z" transform="translate(0.0004 0.0001)" style="fill:#042635"/><path d="M325.6147,71.0518a2.5706,2.5706,0,0,1-.8911.5156,3.0066,3.0066,0,0,1-1.0088.1914q-2.7692,0-2.769-2.8427c0-.0591.002-.1177.0073-.1768s.0073-.1177.0073-.1768l-2.9755.2061L316.9243,76.03q-.0585.4422-.14.9868a6.7516,6.7516,0,0,0-.081.9868,3.028,3.028,0,0,0,.1621.98,1.1475,1.1475,0,0,0,.6626.6992v.4863l-2.7544.5156q-.236.0441-.4565.0811a2.8821,2.8821,0,0,1-.4712.0366q-.8547,0-1.09-.4712a2.735,2.735,0,0,1-.2354-1.2227q0-.3384.0365-.7587t.0811-.7436l1.2373-8.5137-3.2554.25a4.0622,4.0622,0,0,1-.4712,1.9146,3.9144,3.9144,0,0,1-1.2885,1.4511,3.3023,3.3023,0,0,1-1.8931.5523,3.1963,3.1963,0,0,1-.6773-.0884,1.2322,1.2322,0,0,1-.6186-.3091,2.4154,2.4154,0,0,0,.6035-1.2007,6.0859,6.0859,0,0,0,.1768-1.3331q0-.4124-.0147-.8617a3.3779,3.3779,0,0,0-.1323-.8468l7.7182-.5747q.0879-.6181.2134-1.4433t.2134-1.5762a10.5037,10.5037,0,0,0,.0884-1.1192A1.2729,1.2729,0,0,0,314.03,62.84a3.1767,3.1767,0,0,0-1.0977-.5528,5.4451,5.4451,0,0,1-2.6216.6338,5.2861,5.2861,0,0,1-.7661-.0664,2.4681,2.4681,0,0,1-.7363-.2138,1.44,1.44,0,0,0,.6406-.7657,2.7351,2.7351,0,0,0,.1987-.9868,4.12,4.12,0,0,0-.1469-1.0019,1.4267,1.4267,0,0,0-.5156-.8393,4.5238,4.5238,0,0,1,1.1635-.2725,10.5279,10.5279,0,0,1,1.1929-.081,8.8986,8.8986,0,0,1,1.3184.103,2.4369,2.4369,0,0,1,1.1635.4785,1.4328,1.4328,0,0,1,.479,1.2007,1.3807,1.3807,0,0,1-.2578.81,2.9309,2.9309,0,0,1-.5967.6333q.6483-.044,1.4214-.0957t1.4512-.0811q.6768-.0292,1.0161-.0293a1.3983,1.3983,0,0,1,1.0825.3535,1.5979,1.5979,0,0,1,.3169,1.09,10.3225,10.3225,0,0,1-.1181,1.1782q-.1179.8547-.2574,1.8046t-.2285,1.5683l7.0259-.5151a3.9815,3.9815,0,0,0-.1621.8247q-.0439.4571-.044.8394a6.99,6.99,0,0,0,.0513.7143,4.114,4.114,0,0,0,.1992.8916A1.0573,1.0573,0,0,0,325.6147,71.0518Z" transform="translate(0.0004 0.0001)" style="fill:#042635"/><path d="M351.96,76.6343a3.0771,3.0771,0,0,1-.9649,2.35,4.1653,4.1653,0,0,1-2.3351,1.0965l-2.2539.2944q-.81.1032-1.5982.2652a8.0353,8.0353,0,0,1-1.6274.1621,1.5652,1.5652,0,0,1-1.6353-1.4918q-.0033-.0715,0-.143V75.1023a3.0878,3.0878,0,0,0-.7143-2.1211,2.6311,2.6311,0,0,0-2.084-.81,11.9581,11.9581,0,0,0-.5894,1.2666q-.353.8549-.7,1.8487t-.5742,1.8706a5.7964,5.7964,0,0,0-.2285,1.3476,3.08,3.08,0,0,0,.1548.92.765.765,0,0,0,.67.5674v.4126q-.5157.0586-1.2007.1543t-1.3037.1621a9.3968,9.3968,0,0,1-.9425.0665q-.8839,0-1.0166-.5083a4.935,4.935,0,0,1-.1322-1.23,4.8737,4.8737,0,0,1,.1322-1.1117q.1326-.567.28-1.0825a24.9743,24.9743,0,0,1,1.0234-2.8281,24.321,24.321,0,0,1,1.5025-2.9683,11.33,11.33,0,0,1,1.8042-2.3491l-2.3565.3535-.3681-4.8462a1.9839,1.9839,0,0,0-.2066-.7734.9234.9234,0,0,0-.6333-.4639v-.3681l2.7842-.6626a2.2389,2.2389,0,0,1,.5449-.0738.866.866,0,0,1,.98.7349.8565.8565,0,0,1,.0069.1782l.2354,4.7725,3.3881-.604q-.7514.9873-1.4585,2.0473a17.2673,17.2673,0,0,0-1.2373,2.18q.8841-.1619,1.54-.28a9.0434,9.0434,0,0,1,1.5684-.1177,2.89,2.89,0,0,1,1.9887.5673,2.783,2.783,0,0,1,.8247,1.48,18.33,18.33,0,0,1,.3242,1.9591,13.4227,13.4227,0,0,1,1.3179-.3164q.73-.14,1.3775-.2285a7.8626,7.8626,0,0,1,.9868-.0884,3.25,3.25,0,0,1,2.018.5448A2.3024,2.3024,0,0,1,351.96,76.6343Zm-3.8.9429a2.34,2.34,0,0,0-.3389-1.2744,1.2514,1.2514,0,0,0-1.1489-.5376,4.399,4.399,0,0,0-.5156.03l-.5.0586q.0292.6189.0439,1.2373t.0445,1.2373a2.1047,2.1047,0,0,0,.1987.7661.67.67,0,0,0,.67.3535,1.2934,1.2934,0,0,0,1.1562-.5967,2.2878,2.2878,0,0,0,.3893-1.2741Z" transform="translate(0.0004 0.0001)" style="fill:#042635"/><path d="M374.5249,62.7886a2.0751,2.0751,0,0,1-1.252.53,11.5355,11.5355,0,0,1-1.3994.103,5.4141,5.4141,0,0,1-1.4287-.1694,2.37,2.37,0,0,1-1.1635-.8174q-.7068.044-1.4214.103t-1.4214.1328v2.2388a5.163,5.163,0,0,1,2.563.7,2.7292,2.7292,0,0,1,.8838,2.4082,4.8116,4.8116,0,0,1-.6554,2.4746,4.9209,4.9209,0,0,1-1.76,1.7749,4.7571,4.7571,0,0,1-2.4746.6553,7.31,7.31,0,0,1-2.3271-.3828q.0585,1.1045.25,2.3491a6.3323,6.3323,0,0,0,.78,2.2539,3.1877,3.1877,0,0,0,1.8267,1.4214,6.47,6.47,0,0,0,1.5908.2871q.8539.0521,1.62.0518.6776,0,1.355-.03t1.3555-.0884q0,.31.0146.8911a11.6793,11.6793,0,0,0,.0957,1.208,4.0087,4.0087,0,0,0,.2871,1.0972.8257.8257,0,0,0,.5747.5449,2.4569,2.4569,0,0,1-1.0976.3833,8.5838,8.5838,0,0,1-1.1709.103,2.9668,2.9668,0,0,1-2.2905-.7954,3.7582,3.7582,0,0,1-.8467-2.3125q-.5457.0147-1.083.0367t-1.0825.0224a16.3535,16.3535,0,0,1-1.7378-.0962,6.9588,6.9588,0,0,1-1.65-.3681,2.2888,2.2888,0,0,1-1.1344-.8174,9.7489,9.7489,0,0,1-.7583.7q-.4791.405-.7.582a1.0352,1.0352,0,0,1,.4272.67,3.4918,3.4918,0,0,1,.1177.8028,2.2477,2.2477,0,0,1-.4712,1.4731,2.77,2.77,0,0,1-1.2153.8467,4.44,4.44,0,0,1-1.5391.2725,4.8754,4.8754,0,0,1-.8325-.081,3.094,3.094,0,0,1-.8027-.2428.7679.7679,0,0,0,.3022-.5155,4.9946,4.9946,0,0,0,.125-.8175q.0292-.42.0293-.5967a4.5076,4.5076,0,0,0-.147-1.09,9.24,9.24,0,0,0,2.6289-1.1416,9.9841,9.9841,0,0,0,2.1582-1.8779,8.8953,8.8953,0,0,1-.9648-2.6514,14.1357,14.1357,0,0,1-.3023-2.8135,12.4187,12.4187,0,0,1,.376-3.1079,5.821,5.821,0,0,1,1.333-2.5112,5.1485,5.1485,0,0,1,2.7246-1.4658V62.98q-.5448.0594-1.0825.0884t-1.0824.0884a3.5925,3.5925,0,0,1-1.7384,1.1416,8.26,8.26,0,0,1-2.0913.2431,4.5491,4.5491,0,0,1-.7807-.0809,1.8746,1.8746,0,0,1-.7364-.2725,2.7163,2.7163,0,0,0,.6846-3.0268,3.8366,3.8366,0,0,0-.5815-.9058,9.1375,9.1375,0,0,1,1.4287-.2358q.7069-.0588,1.4288-.0591a2.217,2.217,0,0,1,2.4338,1.9767q.01.0941.0115.1888l8.3218-.7222a2.4488,2.4488,0,0,1,.7734-1.517,3.1633,3.1633,0,0,1,1.4287-.67,8.6017,8.6017,0,0,1,1.7163-.1694,5.4566,5.4566,0,0,1,.626.0366q.3163.0375.6108.0957a1.69,1.69,0,0,0-.25.7368,7.4181,7.4181,0,0,0-.0444.7955,10.3189,10.3189,0,0,0,.0664,1.1416A1.2456,1.2456,0,0,0,374.5249,62.7886Zm-8.69,4.7427a2.45,2.45,0,0,0-.3164-1.2886,1.2726,1.2726,0,0,0-1.1861-.5229,1.3212,1.3212,0,0,0-1.0527.3979,2.0362,2.0362,0,0,0-.457.98,8.55,8.55,0,0,0-.14,1.1411q-.03.5751-.0517,1.1416t-.022,1.1416v1.0459a3.099,3.099,0,0,0,.3535.0293,2.26,2.26,0,0,0,1.6939-.6479,3.7024,3.7024,0,0,0,.9057-1.5909,6.5662,6.5662,0,0,0,.2724-1.8266Z" transform="translate(0.0004 0.0001)" style="fill:#042635"/><path d="M390.6245,68.813a.9206.9206,0,0,1-.103.4126L386,78.5933a1.2564,1.2564,0,0,0-.1474.56.48.48,0,0,0,.3535.5009v.545l-2.8428.5156a3.2926,3.2926,0,0,1-.648.0591,1.9523,1.9523,0,0,1-.9941-.25.9323.9323,0,0,1-.4346-.8838,1.7739,1.7739,0,0,1,.0884-.5522q.0879-.2724.1914-.523l4.522-9.9131H381.92l1.5171-3.5644a2.48,2.48,0,0,0,.2061-.9722q0-.9132-.4492-1.09a4.4118,4.4118,0,0,0-1.4805-.1768,3.8714,3.8714,0,0,0-.81.103,2.6052,2.6052,0,0,1,.0445.4859,3.3712,3.3712,0,0,1-.5376,1.8559,4.0433,4.0433,0,0,1-1.4068,1.34,3.6853,3.6853,0,0,1-1.8706.5008,6.5487,6.5487,0,0,1-.7363-.0591,1.317,1.317,0,0,1-.6924-.2353,9.484,9.484,0,0,0,.67-1.1636,2.8934,2.8934,0,0,0,.3609-1.2524,3.05,3.05,0,0,0-.4859-1.6939,11.1061,11.1061,0,0,1,2.2979-.6186,26.5542,26.5542,0,0,1,2.644-.3091q1.3323-.0885,2.3638-.0884a10.3293,10.3293,0,0,1,3.3877.4492q1.2517.45,1.2524,1.3184a3.5,3.5,0,0,1-.2651.9424q-.2652.7074-.6187,1.5469t-.6484,1.5024q-.2945.6629-.3682.81h3.771Q390.6247,68.2829,390.6245,68.813Z" transform="translate(0.0004 0.0001)" style="fill:#042635"/><path d="M413.8379,81.7308q-.6929.2952-1.3994.53a4.6236,4.6236,0,0,1-1.4727.2358,2.3914,2.3914,0,0,1-1.6572-.6479,2.3215,2.3215,0,0,1-.7881-1.5908l-4.6694.5156q-.1326.0145-.2578.022c-.0835.0049-.169.0073-.2574.0073q-.8108,0-1.0385-.4419a2.5386,2.5386,0,0,1-.2286-1.1636q0-1.311.0665-2.74t.1328-2.7544q.0659-1.3259.0659-2.3125,0-.5891-.0073-1.1709t-.0513-1.1564a11.0977,11.0977,0,0,0-.1992-1.4657,3.1376,3.1376,0,0,0-.5816-1.3258,1.5712,1.5712,0,0,0-1.3257-.5521,2.0285,2.0285,0,0,0-1.4658.53,3.4572,3.4572,0,0,0-.8467,1.3476,8.5328,8.5328,0,0,0-.42,1.6938q-.1254.8768-.1987,1.5542-.0887,1.0314-.1177,2.0621t-.03,2.0766q0,.3246-.0073.9429t.0147,1.3257q.0219.7068.0957,1.3111a2.0946,2.0946,0,0,0,.25.8691.8272.8272,0,0,0,.3023.2945,2.8946,2.8946,0,0,0,.3755.1767v.3828l-3.0493.4566q-.1473.0153-.3164.0444a1.95,1.95,0,0,1-.3316.0293.8512.8512,0,0,1-.707-.2944,2.1916,2.1916,0,0,1-.3682-.8838,8.2322,8.2322,0,0,1-.1767-1.2964q-.0439-.7068-.0518-1.333t-.0073-.98q0-1.7673.0884-3.4243a12.38,12.38,0,0,1,.5376-3.0786,6.0739,6.0739,0,0,1,1.5249-2.4966,7.2193,7.2193,0,0,1,3.0634-1.6792v-2.71a1,1,0,0,0-.2133-.6187.7649.7649,0,0,0-.5674-.3091l-.0586-.3681,3.6084-.7515a1.9444,1.9444,0,0,1,.2431-.044,2.2,2.2,0,0,1,.2579-.0146.7218.7218,0,0,1,.6406.25,1.1965,1.1965,0,0,1,.1694.6777V64.91a5.0223,5.0223,0,0,1,2.5264,1.0459,3.4184,3.4184,0,0,1,1.0381,1.8853,13.64,13.64,0,0,1,.2358,2.71q0,2.0325-.0884,4.0649t-.0883,4.0655a1.01,1.01,0,0,0,.11.5376q.1105.17.523.1694a5.4225,5.4225,0,0,0,.9355-.081q.4637-.0807.92-.14a3.2648,3.2648,0,0,1,1.65-1.3257,6.3179,6.3179,0,0,1,2.1206-.3535,4.647,4.647,0,0,1,1.208.147q-.1619.3976-.3388.9136a2.9862,2.9862,0,0,0,.0444,2.143A4.8608,4.8608,0,0,0,413.8379,81.7308Z" transform="translate(0.0004 0.0001)" style="fill:#042635"/></svg>